<svg width="18" height="18" viewBox="0 0 20 18" fill="none" xmlns="http://www.w3.org/2000/svg">
  <path d="M17 6.22021V6.84521H17L17 6.22021ZM17 15.2202L17.5929 15.4179C17.5992 15.3991 17.6045 15.38 17.609 15.3607L17 15.2202ZM5 17.2202L5 17.8452H5V17.2202ZM2.5 15.2202L3.11751 15.1237C3.1152 15.1089 3.11236 15.0943 3.10899 15.0797L2.5 15.2202ZM3.5 3.09521C3.15482 3.09521 2.875 3.37504 2.875 3.72021C2.875 4.06539 3.15482 4.34521 3.5 4.34521V3.09521ZM16 4.34521C16.3452 4.34521 16.625 4.06539 16.625 3.72021C16.625 3.37504 16.3452 3.09521 16 3.09521V4.34521ZM4.5 0.595215C4.15482 0.595215 3.875 0.875037 3.875 1.22021C3.875 1.56539 4.15482 1.84521 4.5 1.84521V0.595215ZM15 1.84521C15.3452 1.84521 15.625 1.56539 15.625 1.22021C15.625 0.875037 15.3452 0.595215 15 0.595215V1.84521ZM12.8286 12.1736C13.1738 12.1736 13.4535 11.8937 13.4534 11.5485C13.4534 11.2033 13.1735 10.9236 12.8283 10.9236L12.8286 12.1736ZM7.17246 10.9246C6.82728 10.9246 6.54749 11.2045 6.54753 11.5497C6.54757 11.8949 6.82743 12.1746 7.1726 12.1746L7.17246 10.9246ZM9.375 14.3771C9.375 14.7222 9.65482 15.0021 10 15.0021C10.3452 15.0021 10.625 14.7222 10.625 14.3771H9.375ZM10.625 8.72021C10.625 8.37504 10.3452 8.09521 10 8.09521C9.65482 8.09521 9.375 8.37504 9.375 8.72021H10.625ZM2.5 6.84521H17V5.59521H2.5V6.84521ZM17 6.84521C17.4036 6.84521 17.5916 6.9457 17.683 7.03715C17.7745 7.1286 17.875 7.31655 17.875 7.7202H19.125C19.125 7.12387 18.9755 6.56182 18.5669 6.15327C18.1584 5.74472 17.5963 5.59521 17 5.59521L17 6.84521ZM17.875 7.7202C17.875 7.89876 17.7961 8.42655 17.6513 9.19877C17.5121 9.941 17.3259 10.8412 17.1389 11.7142C16.952 12.5865 16.765 13.428 16.6246 14.0518C16.5545 14.3636 16.496 14.6207 16.4551 14.7999C16.4347 14.8895 16.4186 14.9595 16.4077 15.0071C16.4022 15.0309 16.398 15.0491 16.3952 15.0613C16.3938 15.0674 16.3928 15.0721 16.3921 15.0751C16.3917 15.0767 16.3914 15.0778 16.3913 15.0786C16.3912 15.079 16.3911 15.0792 16.3911 15.0794C16.391 15.0795 16.391 15.0796 16.391 15.0796C16.391 15.0797 16.391 15.0797 17 15.2202C17.609 15.3607 17.609 15.3607 17.609 15.3607C17.609 15.3606 17.609 15.3605 17.6091 15.3604C17.6091 15.3602 17.6092 15.3599 17.6093 15.3595C17.6095 15.3587 17.6098 15.3575 17.6101 15.3559C17.6109 15.3527 17.6119 15.348 17.6134 15.3417C17.6162 15.3293 17.6205 15.3109 17.626 15.2868C17.637 15.2387 17.6532 15.1682 17.6738 15.078C17.7149 14.8978 17.7737 14.6394 17.8441 14.3262C17.985 13.6999 18.173 12.8539 18.3611 11.9762C18.549 11.0992 18.7378 10.1869 18.8799 9.42913C19.0164 8.70135 19.125 8.04164 19.125 7.7202H17.875ZM16.4071 15.0226C16.3073 15.322 16.2171 15.6866 15.9517 16.0145C15.7191 16.3019 15.3159 16.5952 14.5 16.5952V17.8452C15.6841 17.8452 16.4476 17.3885 16.9233 16.801C17.3662 16.2538 17.5261 15.6185 17.5929 15.4179L16.4071 15.0226ZM14.5 16.5952H5V17.8452H14.5V16.5952ZM5 16.5952C4.13607 16.5952 3.69149 16.217 3.44096 15.8607C3.30796 15.6716 3.22465 15.4789 3.175 15.3323C3.15048 15.2599 3.13505 15.2013 3.12621 15.1635C3.12181 15.1448 3.1191 15.1314 3.11775 15.1244C3.11708 15.1209 3.11675 15.119 3.11672 15.1189C3.11671 15.1188 3.11677 15.1192 3.1169 15.12C3.11697 15.1204 3.11705 15.1209 3.11715 15.1215C3.11721 15.1218 3.11726 15.1222 3.11732 15.1225C3.11735 15.1227 3.1174 15.123 3.11741 15.1231C3.11746 15.1234 3.11751 15.1237 2.5 15.2202C1.88249 15.3167 1.88254 15.317 1.8826 15.3174C1.88262 15.3175 1.88267 15.3178 1.88271 15.3181C1.88279 15.3186 1.88287 15.3191 1.88296 15.3197C1.88314 15.3208 1.88334 15.322 1.88357 15.3234C1.88402 15.3261 1.88456 15.3293 1.8852 15.333C1.88649 15.3404 1.88819 15.3498 1.89034 15.3609C1.89463 15.3832 1.90077 15.4129 1.90919 15.4488C1.92598 15.5204 1.95206 15.6181 1.99101 15.7331C2.06832 15.9615 2.19985 16.2689 2.41842 16.5797C2.87101 17.2234 3.67643 17.8452 5 17.8452L5 16.5952ZM2.5 15.2202C3.10899 15.0797 3.10899 15.0797 3.10898 15.0796C3.10897 15.0796 3.10896 15.0795 3.10894 15.0794C3.10889 15.0792 3.10883 15.079 3.10874 15.0786C3.10856 15.0778 3.1083 15.0767 3.10794 15.0751C3.10724 15.0721 3.10617 15.0674 3.10477 15.0613C3.10196 15.0491 3.09777 15.0309 3.09231 15.0071C3.08137 14.9595 3.06532 14.8895 3.04487 14.7999C3.00398 14.6207 2.94553 14.3636 2.87538 14.0518C2.73504 13.428 2.54804 12.5865 2.36113 11.7143C2.17405 10.8412 1.98784 9.94101 1.84867 9.19878C1.70388 8.42656 1.625 7.89877 1.625 7.72021H0.375C0.375 8.04166 0.483621 8.70136 0.62008 9.42914C0.762162 10.1869 0.950953 11.0992 1.13887 11.9762C1.32696 12.8539 1.51496 13.6999 1.65587 14.3262C1.72634 14.6394 1.78508 14.8978 1.82622 15.0781C1.84679 15.1682 1.86296 15.2387 1.874 15.2868C1.87952 15.3109 1.88376 15.3293 1.88663 15.3417C1.88806 15.348 1.88915 15.3527 1.88988 15.3559C1.89025 15.3575 1.89053 15.3587 1.89071 15.3595C1.89081 15.3599 1.89088 15.3602 1.89093 15.3604C1.89095 15.3605 1.89097 15.3606 1.89098 15.3607C1.891 15.3607 1.89101 15.3608 2.5 15.2202ZM1.625 7.72021C1.625 7.31656 1.72549 7.12861 1.81694 7.03716C1.90839 6.94571 2.09634 6.84521 2.5 6.84521V5.59521C1.90366 5.59521 1.34161 5.74472 0.933058 6.15327C0.524508 6.56182 0.375 7.12387 0.375 7.72021H1.625ZM3.5 4.34521H16V3.09521H3.5V4.34521ZM4.5 1.84521H15V0.595215H4.5V1.84521ZM12.8283 10.9236L9.99986 10.9243L10.0001 12.1743L12.8286 12.1736L12.8283 10.9236ZM9.99993 10.9243L7.17246 10.9246L7.1726 12.1746L10.0001 12.1743L9.99993 10.9243ZM10.625 14.3771L10.625 11.5493H9.375L9.375 14.3771H10.625ZM10.625 11.5493V8.72021H9.375V11.5493H10.625Z" fill="currentColor"/>
</svg>
