<svg width="18" height="18" viewBox="0 0 22 18" fill="none" xmlns="http://www.w3.org/2000/svg">
  <path d="M17 15L17.5929 15.1976C17.5992 15.1789 17.6045 15.1598 17.609 15.1405L17 15ZM5 17L5 17.625H5V17ZM2.5 15L3.11751 14.9035C3.1152 14.8887 3.11236 14.874 3.10899 14.8595L2.5 15ZM4.5 2.875C4.15482 2.875 3.875 3.15482 3.875 3.5C3.875 3.84518 4.15482 4.125 4.5 4.125V2.875ZM15 4.125C15.3452 4.125 15.625 3.84518 15.625 3.5C15.625 3.15482 15.3452 2.875 15 2.875V4.125ZM6.5 0.375C6.15482 0.375 5.875 0.654822 5.875 1C5.875 1.34518 6.15482 1.625 6.5 1.625V0.375ZM13 1.625C13.3452 1.625 13.625 1.34518 13.625 1C13.625 0.654822 13.3452 0.375 13 0.375V1.625ZM20.8601 6.62343C21.2053 6.62334 21.4851 6.34344 21.485 5.99826C21.4849 5.65309 21.205 5.37334 20.8598 5.37343L20.8601 6.62343ZM15.9999 5.37438C15.6547 5.37442 15.3749 5.65428 15.375 5.99946C15.375 6.34464 15.6549 6.62442 16.0001 6.62438L15.9999 5.37438ZM17.8025 8.43C17.8025 8.77518 18.0823 9.055 18.4275 9.055C18.7727 9.055 19.0525 8.77518 19.0525 8.43H17.8025ZM19.0525 3.57007C19.0525 3.22489 18.7727 2.94507 18.4275 2.94507C18.0823 2.94507 17.8025 3.22489 17.8025 3.57007H19.0525ZM18.3968 11.5891C18.4688 11.2516 18.2535 10.9195 17.9159 10.8475C17.5783 10.7755 17.2463 10.9908 17.1743 11.3284L18.3968 11.5891ZM12.75 6.625C13.0952 6.625 13.375 6.34518 13.375 6C13.375 5.65482 13.0952 5.375 12.75 5.375V6.625ZM16.4071 14.8024C16.3073 15.1018 16.2171 15.4664 15.9517 15.7943C15.7191 16.0817 15.3159 16.375 14.5 16.375V17.625C15.6841 17.625 16.4476 17.1683 16.9233 16.5807C17.3662 16.0336 17.5261 15.3982 17.5929 15.1976L16.4071 14.8024ZM14.5 16.375H5V17.625H14.5V16.375ZM5 16.375C4.13607 16.375 3.69149 15.9968 3.44096 15.6405C3.30796 15.4514 3.22465 15.2587 3.175 15.1121C3.15048 15.0397 3.13505 14.981 3.12621 14.9433C3.12181 14.9245 3.1191 14.9112 3.11775 14.9042C3.11708 14.9007 3.11675 14.8988 3.11672 14.8987C3.11671 14.8986 3.11677 14.8989 3.1169 14.8997C3.11697 14.9001 3.11705 14.9007 3.11715 14.9013C3.11721 14.9016 3.11726 14.9019 3.11732 14.9023C3.11735 14.9025 3.1174 14.9028 3.11741 14.9029C3.11746 14.9032 3.11751 14.9035 2.5 15C1.88249 15.0965 1.88254 15.0968 1.8826 15.0972C1.88262 15.0973 1.88267 15.0976 1.88271 15.0979C1.88279 15.0984 1.88287 15.0989 1.88296 15.0994C1.88314 15.1006 1.88334 15.1018 1.88357 15.1032C1.88402 15.1059 1.88456 15.1091 1.8852 15.1128C1.88649 15.1202 1.88819 15.1296 1.89034 15.1407C1.89463 15.163 1.90077 15.1926 1.90919 15.2286C1.92598 15.3002 1.95206 15.3978 1.99101 15.5129C2.06832 15.7413 2.19985 16.0486 2.41842 16.3595C2.87101 17.0032 3.67643 17.625 5 17.625L5 16.375ZM2.5 15C3.10899 14.8595 3.10899 14.8594 3.10898 14.8594C3.10897 14.8594 3.10896 14.8593 3.10894 14.8592C3.10889 14.859 3.10883 14.8587 3.10874 14.8584C3.10856 14.8576 3.1083 14.8564 3.10794 14.8549C3.10724 14.8518 3.10617 14.8472 3.10477 14.8411C3.10196 14.8289 3.09777 14.8107 3.09231 14.7869C3.08137 14.7393 3.06532 14.6692 3.04487 14.5797C3.00398 14.4005 2.94553 14.1433 2.87538 13.8316C2.73504 13.2078 2.54804 12.3663 2.36113 11.494C2.17405 10.621 1.98784 9.7208 1.84867 8.97857C1.70388 8.20635 1.625 7.67856 1.625 7.5H0.375C0.375 7.82144 0.483621 8.48115 0.62008 9.20893C0.762162 9.9667 0.950953 10.879 1.13887 11.756C1.32696 12.6337 1.51496 13.4797 1.65587 14.1059C1.72634 14.4192 1.78508 14.6776 1.82622 14.8578C1.84679 14.948 1.86296 15.0185 1.874 15.0666C1.87952 15.0907 1.88376 15.1091 1.88663 15.1215C1.88806 15.1278 1.88915 15.1325 1.88988 15.1357C1.89025 15.1373 1.89053 15.1385 1.89071 15.1393C1.89081 15.1397 1.89088 15.14 1.89093 15.1402C1.89095 15.1403 1.89097 15.1404 1.89098 15.1404C1.891 15.1405 1.89101 15.1405 2.5 15ZM1.625 7.5C1.625 7.09634 1.72549 6.90839 1.81694 6.81694C1.90839 6.72549 2.09634 6.625 2.5 6.625V5.375C1.90366 5.375 1.34161 5.52451 0.933058 5.93306C0.524508 6.34161 0.375 6.90366 0.375 7.5H1.625ZM4.5 4.125H15V2.875H4.5V4.125ZM6.5 1.625H13V0.375H6.5V1.625ZM20.8598 5.37343L18.4273 5.37406L18.4276 6.62406L20.8601 6.62343L20.8598 5.37343ZM18.4274 5.37406L15.9999 5.37438L16.0001 6.62438L18.4276 6.62406L18.4274 5.37406ZM19.0525 8.43V5.99906H17.8025V8.43H19.0525ZM19.0525 5.99906V3.57007H17.8025V5.99906H19.0525ZM17.1743 11.3284C16.9817 12.2314 16.7858 13.1143 16.6381 13.7718C16.5642 14.1005 16.5024 14.3726 16.4591 14.5625C16.4374 14.6574 16.4204 14.7317 16.4087 14.7823C16.4029 14.8076 16.3985 14.827 16.3955 14.8399C16.394 14.8464 16.3929 14.8513 16.3921 14.8546C16.3917 14.8563 16.3915 14.8575 16.3913 14.8583C16.3912 14.8587 16.3911 14.859 16.3911 14.8592C16.391 14.8593 16.391 14.8594 16.391 14.8594C16.391 14.8594 16.391 14.8594 16.391 14.8595C16.391 14.8595 16.391 14.8595 17 15C17.609 15.1405 17.609 15.1405 17.609 15.1405C17.609 15.1405 17.609 15.1405 17.609 15.1404C17.609 15.1404 17.6091 15.1403 17.6091 15.1402C17.6091 15.14 17.6092 15.1396 17.6093 15.1392C17.6095 15.1383 17.6098 15.137 17.6102 15.1354C17.611 15.132 17.6121 15.1269 17.6136 15.1203C17.6167 15.1071 17.6212 15.0875 17.6271 15.062C17.6388 15.0109 17.6559 14.936 17.6777 14.8405C17.7213 14.6495 17.7834 14.3761 17.8576 14.0459C18.006 13.3858 18.2029 12.4981 18.3968 11.5891L17.1743 11.3284ZM2.5 6.625H12.5V5.375H2.5V6.625ZM12.5 6.625H12.75V5.375H12.5V6.625Z" fill="currentColor"/>
</svg>
