<svg width="18" height="16" viewBox="0 0 18 16" fill="none" xmlns="http://www.w3.org/2000/svg">
  <path fill-rule="evenodd" clip-rule="evenodd" d="M17.2509 0.672187C17.4231 0.814669 17.5227 1.02652 17.5227 1.25001V13.25C17.5227 13.4735 17.4231 13.6853 17.2509 13.8278C17.0787 13.9703 16.8519 14.0286 16.6324 13.9868L12.3016 13.1618C12.1526 13.721 11.87 14.2601 11.4239 14.6894C10.6842 15.4012 9.60263 15.708 8.26204 15.44C7.25138 15.2379 6.32842 14.8119 5.72359 14.0254C5.25186 13.412 5.03057 12.6543 5.04493 11.7796L1.35967 11.0777C1.00593 11.0103 0.75 10.701 0.75 10.3409V4.1591C0.75 3.799 1.00593 3.48972 1.35967 3.42234L16.6324 0.513252C16.8519 0.471435 17.0787 0.529705 17.2509 0.672187ZM6.55072 12.0664L10.8218 12.88C10.7295 13.1664 10.5811 13.4187 10.3838 13.6085C10.0598 13.9203 9.50541 14.1589 8.55614 13.9691C7.74812 13.8075 7.21669 13.5063 6.91263 13.111C6.7228 12.8641 6.58273 12.5298 6.55072 12.0664ZM2.25 4.77972V9.72029L3.29545 9.91942V4.58059L2.25 4.77972ZM4.79545 4.29488L16.0227 2.15635V12.3437L4.79545 10.2051V4.29488Z" fill="currentColor" />
</svg>
