<svg width="16" height="13" viewBox="0 0 16 13" fill="none" xmlns="http://www.w3.org/2000/svg">
  <path fill-rule="evenodd" clip-rule="evenodd" d="M6.73033 1.53033C7.02322 1.23744 7.02322 0.762563 6.73033 0.46967C6.43744 0.176777 5.96256 0.176777 5.66967 0.46967L0.46967 5.66967C0.328125 5.81121 0.249037 6.00347 0.250009 6.20364C0.250981 6.40381 0.331931 6.59529 0.474843 6.73545L5.67484 11.8355C5.97057 12.1255 6.44542 12.1209 6.73545 11.8252C7.02549 11.5294 7.02088 11.0546 6.72516 10.7645L2.83601 6.9502H14.5008C14.915 6.9502 15.2508 6.61441 15.2508 6.2002C15.2508 5.78598 14.915 5.4502 14.5008 5.4502H2.81046L6.73033 1.53033Z" fill="currentColor" />
</svg>
