<svg width="18" height="18" viewBox="0 0 18 18" fill="none" xmlns="http://www.w3.org/2000/svg">
  <path fill-rule="evenodd" clip-rule="evenodd" d="M11.821 12.4453C11.821 12.8595 12.1568 13.1953 12.571 13.1953C12.9852 13.1953 13.321 12.8595 13.321 12.4453L13.321 5.09136C13.321 4.89118 13.241 4.69931 13.0987 4.55846C12.9565 4.4176 12.7639 4.33945 12.5637 4.34139L5.2805 4.4121C4.8663 4.41612 4.53379 4.75515 4.53781 5.16935C4.54184 5.58354 4.88087 5.91605 5.29506 5.91203L10.7423 5.85915L4.47427 12.1271C4.18138 12.42 4.18138 12.8949 4.47427 13.1878C4.76717 13.4807 5.24204 13.4807 5.53493 13.1878L11.821 6.90174L11.821 12.4453Z" fill="currentColor" />
</svg>
