<svg width="58" height="52" viewBox="0 0 58 52" fill="none" xmlns="http://www.w3.org/2000/svg">
  <path fill-rule="evenodd" clip-rule="evenodd" d="M40.2998 17.16C43.6025 17.16 46.2798 14.4826 46.2798 11.18C46.2798 7.87729 43.6025 5.19995 40.2998 5.19995C36.9972 5.19995 34.3198 7.87729 34.3198 11.18C34.3198 14.4826 36.9972 17.16 40.2998 17.16ZM40.2998 14.66C42.2218 14.66 43.7798 13.1019 43.7798 11.18C43.7798 9.258 42.2218 7.69995 40.2998 7.69995C38.3779 7.69995 36.8198 9.258 36.8198 11.18C36.8198 13.1019 38.3779 14.66 40.2998 14.66Z" fill="currentColor" />
  <path fill-rule="evenodd" clip-rule="evenodd" d="M55.0274 44.9826L51.9848 42.5903L51.9778 42.5904L51.9826 42.5942C51.6752 47.8404 47.3234 52 42 52H10C4.47715 52 0 47.5228 0 42V10C0 4.47715 4.47715 0 10 0H42C47.5228 0 52 4.47715 52 10V25.75H55.8C56.4904 25.75 57.05 26.3096 57.05 27V44C57.05 44.4786 56.7767 44.9152 56.3462 45.1243C55.9158 45.3335 55.4036 45.2785 55.0274 44.9826ZM10 2.5H42C46.1421 2.5 49.5 5.85786 49.5 10V25.75H45.85C45.1596 25.75 44.6 26.3096 44.6 27V33.4165L36.7298 25.1141C36.4985 24.8701 36.1787 24.7296 35.8426 24.7242C35.5065 24.7188 35.1823 24.8491 34.9434 25.0856L29.9472 30.0298L20.6829 20.9472C20.194 20.4679 19.4105 20.4711 18.9255 20.9544L5.35743 34.4744C4.86841 34.9617 4.86701 35.7531 5.35429 36.2422C5.84158 36.7312 6.63304 36.7326 7.12206 36.2453L19.815 23.5974L32.7233 36.2524C33.2162 36.7357 34.0077 36.7279 34.491 36.2349C34.9743 35.742 34.9664 34.9505 34.4734 34.4672L31.7326 31.7801L35.7941 27.7609L43.8126 36.2198C44.0286 36.4477 44.3101 36.5763 44.6 36.6041V44C44.6 44.4821 44.8746 44.9213 45.3099 45.1286C45.7452 45.3359 46.2656 45.2743 46.6399 44.9704L49.482 42.6337L49.4816 42.6348L49.4753 42.64C49.1631 46.4951 45.9355 49.5 42 49.5H10C5.85787 49.5 2.5 46.1421 2.5 42V10C2.5 5.85787 5.85786 2.5 10 2.5ZM47.0999 28.25V41.3751L49.9321 39.0352C50.3855 38.6671 51.0335 38.662 51.4926 39.023L54.55 41.427V28.25H47.0999Z" fill="currentColor" />
</svg>
