<svg version="1.1" xmlns="http://www.w3.org/2000/svg" width="16" height="16" viewBox="0 0 16 16">
  <title>bookmark-active</title>
  <path d="M3.266 15.111v-14.222h9.469v14.222l-4.81-3.342-4.659 3.342z" fill="currentColor"></path>
  <path d="M3.266 15.111h-0.667c0 0.25 0.14 0.479 0.362 0.593s0.49 0.094 0.693-0.051l-0.389-0.542zM7.924 11.769l0.38-0.547c-0.232-0.161-0.54-0.159-0.769 0.006l0.389 0.542zM12.734 15.111l-0.38 0.548c0.204 0.142 0.469 0.158 0.689 0.043s0.358-0.343 0.358-0.591h-0.667zM12.734 0.889h0.667c0-0.368-0.298-0.667-0.667-0.667v0.667zM3.266 0.889v-0.667c-0.368 0-0.667 0.298-0.667 0.667h0.667zM2.599 6.208v8.903h1.333v-8.903h-1.333zM3.654 15.653l4.659-3.342-0.777-1.083-4.659 3.342 0.777 1.083zM7.544 12.317l4.81 3.342 0.761-1.095-4.81-3.342-0.761 1.095zM13.401 15.111v-8.903h-1.333v8.903h1.333zM13.401 6.208v-5.32h-1.333v5.32h1.333zM12.734 0.222h-9.469v1.333h9.469v-1.333zM2.599 0.889v5.32h1.333v-5.32h-1.333z" fill="currentColor"></path>
</svg>
