<svg width="61" height="52" viewBox="0 0 61 52" fill="none" xmlns="http://www.w3.org/2000/svg">
  <path fill-rule="evenodd" clip-rule="evenodd" d="M42 2.5H10C5.85786 2.5 2.5 5.85787 2.5 10V42C2.5 46.1421 5.85787 49.5 10 49.5H42C46.1421 49.5 49.5 46.1421 49.5 42V40.8882C44.6887 40.1645 41 36.013 41 31C41 25.987 44.6887 21.8355 49.5 21.1117V10C49.5 5.85786 46.1421 2.5 42 2.5ZM52 21.0494V10C52 4.47715 47.5228 0 42 0H10C4.47715 0 0 4.47715 0 10V42C0 47.5228 4.47715 52 10 52H42C47.5228 52 52 47.5228 52 42V40.9506C57.0533 40.4489 61 36.1853 61 31C61 25.8147 57.0533 21.5511 52 21.0494ZM19.1339 24.6229C18.6457 24.1348 17.8543 24.1348 17.3661 24.6229C16.878 25.1111 16.878 25.9025 17.3661 26.3907L25.0444 34.0689C25.2803 34.3048 25.6007 34.4367 25.9343 34.435C26.268 34.4334 26.5871 34.2985 26.8207 34.0603L34.3513 26.3821C34.8347 25.8892 34.827 25.0978 34.3341 24.6144C33.8413 24.131 33.0498 24.1387 32.5664 24.6315L27.1786 30.1251V13.25C27.1786 12.5596 26.6189 12 25.9286 12C25.2382 12 24.6786 12.5596 24.6786 13.25V30.1676L19.1339 24.6229ZM17.1543 38.1304C17.1543 37.44 17.7139 36.8804 18.4043 36.8804H33.1543C33.8447 36.8804 34.4043 37.44 34.4043 38.1304C34.4043 38.8207 33.8447 39.3804 33.1543 39.3804H18.4043C17.7139 39.3804 17.1543 38.8207 17.1543 38.1304ZM54.3607 29.5607C54.9464 28.9749 54.9464 28.0251 54.3607 27.4393C53.7749 26.8536 52.8251 26.8535 52.2393 27.4393L50.8993 28.7794L49.5607 27.441C48.9749 26.8552 48.0251 26.8552 47.4393 27.441C46.8536 28.0268 46.8536 28.9765 47.4393 29.5623L48.778 30.9007L47.4393 32.2393C46.8536 32.8251 46.8536 33.7749 47.4393 34.3606C48.0251 34.9464 48.9749 34.9464 49.5607 34.3606L50.8997 33.0216L52.2396 34.361C52.8256 34.9466 53.7753 34.9463 54.3609 34.3604C54.9466 33.7744 54.9463 32.8246 54.3603 32.239L53.021 30.9003L54.3607 29.5607ZM51 38.5C55.1421 38.5 58.5 35.1421 58.5 31C58.5 26.8579 55.1421 23.5 51 23.5C46.8579 23.5 43.5 26.8579 43.5 31C43.5 35.1421 46.8579 38.5 51 38.5Z" fill="currentColor" />
</svg>
