<svg width="60" height="52" viewBox="0 0 60 52" fill="none" xmlns="http://www.w3.org/2000/svg">
  <path fill-rule="evenodd" clip-rule="evenodd" d="M39.2998 18.16C42.6025 18.16 45.2798 15.4826 45.2798 12.18C45.2798 8.87729 42.6025 6.19995 39.2998 6.19995C35.9972 6.19995 33.3198 8.87729 33.3198 12.18C33.3198 15.4826 35.9972 18.16 39.2998 18.16ZM39.2998 15.16C40.9456 15.16 42.2798 13.8258 42.2798 12.18C42.2798 10.5341 40.9456 9.19995 39.2998 9.19995C37.654 9.19995 36.3198 10.5341 36.3198 12.18C36.3198 13.8258 37.654 15.16 39.2998 15.16Z" fill="currentColor" />
  <path d="M50 30.2679C50.8284 30.2679 51.5 30.9395 51.5 31.7679L51.5 33.6625L53.3936 33.662C54.2221 33.6618 54.8939 34.3332 54.8941 35.1616C54.8943 35.9901 54.2229 36.6618 53.3945 36.662L51.5 36.6625V38.5561C51.5 39.3846 50.8284 40.0561 50 40.0561C49.1716 40.0561 48.5 39.3846 48.5 38.5561V36.663L46.607 36.6632C45.7786 36.6632 45.107 35.9916 45.107 35.1632C45.107 34.3348 45.7786 33.6632 46.607 33.6632L48.5 33.663L48.5 31.7679C48.5 30.9395 49.1716 30.2679 50 30.2679Z" fill="currentColor" />
  <path fill-rule="evenodd" clip-rule="evenodd" d="M52 25.2V10C52 4.47715 47.5228 0 42 0H10C4.47715 0 0 4.47715 0 10V42C0 47.5228 4.47715 52 10 52H42C46.5232 52 50.345 48.9969 51.5803 44.8758C56.3522 44.1182 60 39.9851 60 35C60 30.1621 56.5645 26.1266 52 25.2ZM42 3H10C6.13401 3 3 6.13401 3 10V42C3 45.866 6.13401 49 10 49H42C44.8431 49 47.2903 47.305 48.3863 44.8705C43.6307 44.0989 40 39.9735 40 35C40 34.2492 40.0827 33.5177 40.2396 32.8141L35.7884 28.1184L32.0888 31.7794L34.6485 34.2889C35.24 34.8688 35.2494 35.8185 34.6695 36.4101C34.0895 37.0016 33.1398 37.011 32.5483 36.4311L19.8164 23.949L7.29852 36.4225C6.7117 37.0073 5.76195 37.0056 5.1772 36.4187C4.59246 35.8319 4.59415 34.8822 5.18097 34.2974L18.7491 20.7774C19.331 20.1975 20.2713 20.1937 20.8579 20.7689L29.9464 29.679L34.7675 24.908C35.0543 24.6242 35.4432 24.4679 35.8466 24.4744C36.25 24.4808 36.6337 24.6495 36.9113 24.9422L41.48 29.7619C43.0754 27.1724 45.8184 25.3653 49 25.0494V10C49 6.13401 45.866 3 42 3ZM57 35C57 38.866 53.866 42 50 42C46.134 42 43 38.866 43 35C43 31.134 46.134 28 50 28C53.866 28 57 31.134 57 35Z" fill="currentColor" />
</svg>
