<svg width="52" height="53" viewBox="0 0 52 53" fill="none" xmlns="http://www.w3.org/2000/svg">
  <path fill-rule="evenodd" clip-rule="evenodd" d="M26.5388 0.158821C26.1574 -0.0543154 25.6924 -0.0528428 25.3124 0.162704L1.39997 13.7249C1.29936 13.7799 1.20569 13.8491 1.12231 13.9314C1.00743 14.0446 0.917469 14.1774 0.854804 14.3213C0.782926 14.4854 0.749111 14.6581 0.750245 14.8286C0.75107 14.999 0.786814 15.1712 0.860461 15.3344C0.924748 15.4776 1.01622 15.6094 1.13241 15.7213C1.21674 15.8027 1.31119 15.8708 1.41245 15.9247L25.3248 29.13C25.6984 29.3363 26.1515 29.3377 26.5265 29.1337L50.7968 15.9278C50.8992 15.8741 50.9948 15.8058 51.0801 15.724C51.3265 15.4879 51.4628 15.1624 51.465 14.8284C51.4665 14.4944 51.334 14.1675 51.0902 13.9287C51.0058 13.846 50.911 13.7766 50.8092 13.7217L26.5388 0.158821ZM47.6262 14.8069L25.9336 2.68447L4.55982 14.8069L25.9335 26.6103L47.6262 14.8069ZM51.3057 25.6402C51.6425 26.2429 51.4269 27.0044 50.8243 27.3412L26.5386 40.9126C26.1572 41.1258 25.6922 41.1243 25.3121 40.9087L1.38354 27.3373C0.783046 26.9967 0.572342 26.2338 0.912922 25.6333C1.2535 25.0328 2.0164 24.8221 2.61689 25.1627L25.9333 38.387L49.6048 25.1588C50.2074 24.8221 50.9689 25.0376 51.3057 25.6402ZM50.8243 38.7697C51.4269 38.433 51.6425 37.6714 51.3057 37.0688C50.9689 36.4661 50.2074 36.2506 49.6048 36.5874L25.9333 49.8155L2.61689 36.5913C2.0164 36.2507 1.2535 36.4614 0.912922 37.0619C0.572342 37.6624 0.783046 38.4253 1.38354 38.7659L25.3121 52.3373C25.6922 52.5528 26.1572 52.5543 26.5386 52.3412L50.8243 38.7697Z" fill="currentColor" />
</svg>
