<svg version="1.1" xmlns="http://www.w3.org/2000/svg" width="15" height="16" viewBox="0 0 15 16">
    <path fill="currentColor" d="M7.836 0.309l6.854 3.83c0.157 0.088 0.268 0.224 0.327 0.38 0.032 0.085 0.047 0.174 0.046 0.262-0.001 0.086-0.017 0.172-0.049 0.255-0.060 0.156-0.173 0.292-0.332 0.378l-6.854 3.729c-0.218 0.119-0.482 0.118-0.7-0.002l-6.753-3.729c-0.156-0.086-0.267-0.22-0.327-0.374-0.033-0.084-0.049-0.172-0.049-0.258-0.002-0.255 0.131-0.504 0.369-0.638l6.753-3.83c0.221-0.126 0.492-0.126 0.714-0.002zM12.827 4.766l-5.343-2.986-5.265 2.986 5.265 2.907 5.344-2.907z"></path>
    <path fill="currentColor" d="M14.97 7.645c0.196 0.351 0.071 0.795-0.28 0.991l-6.854 3.83c-0.222 0.124-0.493 0.123-0.714-0.002l-6.753-3.83c-0.35-0.198-0.472-0.643-0.274-0.992s0.643-0.472 0.992-0.274l6.396 3.628 6.496-3.63c0.351-0.196 0.795-0.071 0.991 0.28z"></path>
    <path fill="currentColor" d="M14.69 11.861c0.351-0.196 0.477-0.64 0.28-0.991s-0.64-0.477-0.991-0.28l-6.496 3.63-6.396-3.628c-0.35-0.198-0.794-0.076-0.992 0.274s-0.076 0.794 0.274 0.992l6.753 3.83c0.221 0.126 0.492 0.126 0.714 0.002l6.854-3.83z"></path>
</svg>
