<svg width="16" height="16" viewBox="0 0 16 16" fill="none" xmlns="http://www.w3.org/2000/svg">
  <path fill-rule="evenodd" clip-rule="evenodd" d="M13 1H3C1.89543 1 1 1.89543 1 3V3.5H15V3C15 1.89543 14.1046 1 13 1ZM15 4.5H1V13C1 14.1046 1.89543 15 3 15H13C14.1046 15 15 14.1046 15 13V4.5ZM3 0C1.34315 0 0 1.34315 0 3V13C0 14.6569 1.34315 16 3 16H13C14.6569 16 16 14.6569 16 13V3C16 1.34315 14.6569 0 13 0H3ZM11.8887 8.01334C12.1712 8.01334 12.4001 7.78437 12.4001 7.50191C12.4001 7.21945 12.1712 6.99048 11.8887 6.99048C11.6063 6.99048 11.3773 7.21945 11.3773 7.50191C11.3773 7.78437 11.6063 8.01334 11.8887 8.01334ZM11.8887 9.01334C12.7235 9.01334 13.4001 8.33665 13.4001 7.50191C13.4001 6.66717 12.7235 5.99048 11.8887 5.99048C11.054 5.99048 10.3773 6.66717 10.3773 7.50191C10.3773 8.33665 11.054 9.01334 11.8887 9.01334ZM12.4001 11.5114C12.4001 11.7939 12.1712 12.0229 11.8887 12.0229C11.6063 12.0229 11.3773 11.7939 11.3773 11.5114C11.3773 11.229 11.6063 11 11.8887 11C12.1712 11 12.4001 11.229 12.4001 11.5114ZM13.4001 11.5114C13.4001 12.3462 12.7235 13.0229 11.8887 13.0229C11.054 13.0229 10.3773 12.3462 10.3773 11.5114C10.3773 10.6767 11.054 10 11.8887 10C12.7235 10 13.4001 10.6767 13.4001 11.5114ZM8.01143 8.01334C8.29389 8.01334 8.52286 7.78437 8.52286 7.50191C8.52286 7.21945 8.29389 6.99048 8.01143 6.99048C7.72898 6.99048 7.5 7.21945 7.5 7.50191C7.5 7.78437 7.72898 8.01334 8.01143 8.01334ZM8.01143 9.01334C8.84617 9.01334 9.52286 8.33665 9.52286 7.50191C9.52286 6.66717 8.84617 5.99048 8.01143 5.99048C7.17669 5.99048 6.5 6.66717 6.5 7.50191C6.5 8.33665 7.17669 9.01334 8.01143 9.01334ZM8.52286 11.5114C8.52286 11.7939 8.29389 12.0229 8.01143 12.0229C7.72898 12.0229 7.5 11.7939 7.5 11.5114C7.5 11.229 7.72898 11 8.01143 11C8.29389 11 8.52286 11.229 8.52286 11.5114ZM9.52286 11.5114C9.52286 12.3462 8.84617 13.0229 8.01143 13.0229C7.17669 13.0229 6.5 12.3462 6.5 11.5114C6.5 10.6767 7.17669 10 8.01143 10C8.84617 10 9.52286 10.6767 9.52286 11.5114ZM4.1781 8.01334C4.46055 8.01334 4.68953 7.78437 4.68953 7.50191C4.68953 7.21945 4.46055 6.99048 4.1781 6.99048C3.89564 6.99048 3.66667 7.21945 3.66667 7.50191C3.66667 7.78437 3.89564 8.01334 4.1781 8.01334ZM4.1781 9.01334C5.01284 9.01334 5.68953 8.33665 5.68953 7.50191C5.68953 6.66717 5.01284 5.99048 4.1781 5.99048C3.34336 5.99048 2.66667 6.66717 2.66667 7.50191C2.66667 8.33665 3.34336 9.01334 4.1781 9.01334Z" fill="currentColor" />
</svg>
