<svg width="30" height="30" viewBox="0 0 30 30" fill="none" xmlns="http://www.w3.org/2000/svg">
  <circle cx="15" cy="15" r="14.5" fill="white" stroke="currentColor" />
  <path fill-rule="evenodd" clip-rule="evenodd" d="M16.1919 20.1913C15.899 20.4842 15.899 20.9591 16.1919 21.252C16.4848 21.5449 16.9597 21.5449 17.2526 21.252L23.0303 15.4742C23.1719 15.3327 23.251 15.1404 23.25 14.9403C23.249 14.7401 23.1681 14.5486 23.0252 14.4084L17.2474 8.74178C16.9517 8.45174 16.4768 8.45635 16.1868 8.75208C15.8967 9.0478 15.9013 9.52265 16.1971 9.81269L20.664 14.1937L7.49913 14.1937C7.08492 14.1937 6.74913 14.5295 6.74913 14.9437C6.74913 15.3579 7.08492 15.6937 7.49913 15.6937L20.6896 15.6937L16.1919 20.1913Z" fill="currentColor" />
</svg>
