<svg width="30" height="30" viewBox="0 0 30 30" fill="none" xmlns="http://www.w3.org/2000/svg">
  <circle cx="15" cy="15" r="14.5" transform="rotate(-180 15 15)" fill="white" stroke="currentColor" />
  <path fill-rule="evenodd" clip-rule="evenodd" d="M13.8081 9.80865C14.101 9.51576 14.101 9.04088 13.8081 8.74799C13.5152 8.4551 13.0403 8.4551 12.7474 8.74799L6.96967 14.5258C6.82812 14.6673 6.74904 14.8596 6.75001 15.0597C6.75098 15.2599 6.83193 15.4514 6.97484 15.5916L12.7526 21.2582C13.0483 21.5483 13.5232 21.5436 13.8132 21.2479C14.1033 20.9522 14.0987 20.4773 13.8029 20.1873L9.33603 15.8063L22.5009 15.8063C22.9151 15.8063 23.2509 15.4705 23.2509 15.0563C23.2509 14.6421 22.9151 14.3063 22.5009 14.3063L9.31044 14.3063L13.8081 9.80865Z" fill="currentColor" />
</svg>
