<svg width="20" height="18" viewBox="0 0 20 18" fill="none" xmlns="http://www.w3.org/2000/svg">
  <path d="M17 6V6.625H17L17 6ZM17 15L17.5929 15.1976C17.5992 15.1789 17.6045 15.1598 17.609 15.1405L17 15ZM5 17L5 17.625H5V17ZM2.5 15L3.11751 14.9035C3.1152 14.8887 3.11236 14.874 3.10899 14.8595L2.5 15ZM2.5 2.875C2.15482 2.875 1.875 3.15482 1.875 3.5C1.875 3.84518 2.15482 4.125 2.5 4.125V2.875ZM17 4.125C17.3452 4.125 17.625 3.84518 17.625 3.5C17.625 3.15482 17.3452 2.875 17 2.875V4.125ZM3.5 0.375C3.15482 0.375 2.875 0.654822 2.875 1C2.875 1.34518 3.15482 1.625 3.5 1.625V0.375ZM16 1.625C16.3452 1.625 16.625 1.34518 16.625 1C16.625 0.654822 16.3452 0.375 16 0.375V1.625ZM2.5 6.625H17V5.375H2.5V6.625ZM17 6.625C17.4036 6.62499 17.5916 6.72548 17.683 6.81693C17.7745 6.90838 17.875 7.09633 17.875 7.49999H19.125C19.125 6.90365 18.9755 6.3416 18.5669 5.93305C18.1584 5.5245 17.5963 5.37499 17 5.375L17 6.625ZM17.875 7.49999C17.875 7.67854 17.7961 8.20633 17.6513 8.97855C17.5121 9.72078 17.3259 10.621 17.1389 11.494C16.952 12.3663 16.765 13.2078 16.6246 13.8316C16.5545 14.1433 16.496 14.4005 16.4551 14.5797C16.4347 14.6692 16.4186 14.7393 16.4077 14.7869C16.4022 14.8107 16.398 14.8289 16.3952 14.8411C16.3938 14.8472 16.3928 14.8518 16.3921 14.8549C16.3917 14.8565 16.3914 14.8576 16.3913 14.8584C16.3912 14.8587 16.3911 14.859 16.3911 14.8592C16.391 14.8593 16.391 14.8594 16.391 14.8594C16.391 14.8595 16.391 14.8595 17 15C17.609 15.1405 17.609 15.1405 17.609 15.1404C17.609 15.1404 17.609 15.1403 17.6091 15.1402C17.6091 15.14 17.6092 15.1397 17.6093 15.1393C17.6095 15.1385 17.6098 15.1372 17.6101 15.1357C17.6109 15.1325 17.6119 15.1277 17.6134 15.1215C17.6162 15.1091 17.6205 15.0907 17.626 15.0666C17.637 15.0185 17.6532 14.9479 17.6738 14.8578C17.7149 14.6776 17.7737 14.4192 17.8441 14.1059C17.985 13.4797 18.173 12.6337 18.3611 11.7559C18.549 10.879 18.7378 9.96669 18.8799 9.20891C19.0164 8.48113 19.125 7.82142 19.125 7.49999H17.875ZM16.4071 14.8024C16.3073 15.1018 16.2171 15.4664 15.9517 15.7943C15.7191 16.0817 15.3159 16.375 14.5 16.375V17.625C15.6841 17.625 16.4476 17.1683 16.9233 16.5807C17.3662 16.0336 17.5261 15.3982 17.5929 15.1976L16.4071 14.8024ZM14.5 16.375H5V17.625H14.5V16.375ZM5 16.375C4.13607 16.375 3.69149 15.9968 3.44096 15.6405C3.30796 15.4514 3.22465 15.2587 3.175 15.1121C3.15048 15.0397 3.13505 14.981 3.12621 14.9433C3.12181 14.9245 3.1191 14.9112 3.11775 14.9042C3.11708 14.9007 3.11675 14.8988 3.11672 14.8987C3.11671 14.8986 3.11677 14.8989 3.1169 14.8997C3.11697 14.9001 3.11705 14.9007 3.11715 14.9013C3.11721 14.9016 3.11726 14.9019 3.11732 14.9023C3.11735 14.9025 3.1174 14.9028 3.11741 14.9029C3.11746 14.9032 3.11751 14.9035 2.5 15C1.88249 15.0965 1.88254 15.0968 1.8826 15.0972C1.88262 15.0973 1.88267 15.0976 1.88271 15.0979C1.88279 15.0984 1.88287 15.0989 1.88296 15.0994C1.88314 15.1006 1.88334 15.1018 1.88357 15.1032C1.88402 15.1059 1.88456 15.1091 1.8852 15.1128C1.88649 15.1202 1.88819 15.1296 1.89034 15.1407C1.89463 15.163 1.90077 15.1926 1.90919 15.2286C1.92598 15.3002 1.95206 15.3978 1.99101 15.5129C2.06832 15.7413 2.19985 16.0486 2.41842 16.3595C2.87101 17.0032 3.67643 17.625 5 17.625L5 16.375ZM2.5 15C3.10899 14.8595 3.10899 14.8594 3.10898 14.8594C3.10897 14.8594 3.10896 14.8593 3.10894 14.8592C3.10889 14.859 3.10883 14.8587 3.10874 14.8584C3.10856 14.8576 3.1083 14.8564 3.10794 14.8549C3.10724 14.8518 3.10617 14.8472 3.10477 14.8411C3.10196 14.8289 3.09777 14.8107 3.09231 14.7869C3.08137 14.7393 3.06532 14.6692 3.04487 14.5797C3.00398 14.4005 2.94553 14.1433 2.87538 13.8316C2.73504 13.2078 2.54804 12.3663 2.36113 11.494C2.17405 10.621 1.98784 9.7208 1.84867 8.97857C1.70388 8.20635 1.625 7.67856 1.625 7.5H0.375C0.375 7.82144 0.483621 8.48115 0.62008 9.20893C0.762162 9.9667 0.950953 10.879 1.13887 11.756C1.32696 12.6337 1.51496 13.4797 1.65587 14.1059C1.72634 14.4192 1.78508 14.6776 1.82622 14.8578C1.84679 14.948 1.86296 15.0185 1.874 15.0666C1.87952 15.0907 1.88376 15.1091 1.88663 15.1215C1.88806 15.1278 1.88915 15.1325 1.88988 15.1357C1.89025 15.1373 1.89053 15.1385 1.89071 15.1393C1.89081 15.1397 1.89088 15.14 1.89093 15.1402C1.89095 15.1403 1.89097 15.1404 1.89098 15.1404C1.891 15.1405 1.89101 15.1405 2.5 15ZM1.625 7.5C1.625 7.09634 1.72549 6.90839 1.81694 6.81694C1.90839 6.72549 2.09634 6.625 2.5 6.625V5.375C1.90366 5.375 1.34161 5.52451 0.933058 5.93306C0.524508 6.34161 0.375 6.90366 0.375 7.5H1.625ZM2.5 4.125H17V2.875H2.5V4.125ZM3.5 1.625H16V0.375H3.5V1.625Z" fill="#282828" fill-opacity="0.5" />
</svg>
