<svg width="19" height="18" viewBox="0 0 19 18" fill="none" xmlns="http://www.w3.org/2000/svg">
  <path fill-rule="evenodd" clip-rule="evenodd" d="M4.78581 7.01178C4.3716 7.01178 4.03581 7.34756 4.03581 7.76178C4.03581 8.17599 4.3716 8.51178 4.78581 8.51178L8.53254 8.51178C8.73272 8.51178 8.92459 8.43175 9.06544 8.28952C9.2063 8.14729 9.28445 7.95466 9.28251 7.75449L9.24648 4.04379C9.24246 3.6296 8.90343 3.29708 8.48924 3.30111C8.07504 3.30513 7.74253 3.64416 7.74655 4.05835L7.76476 5.93313L4.19919 2.36756C3.90629 2.07466 3.43142 2.07467 3.13853 2.36756C2.84563 2.66045 2.84563 3.13533 3.13853 3.42822L6.72208 7.01178L4.78581 7.01178Z" fill="currentColor" />
  <path fill-rule="evenodd" clip-rule="evenodd" d="M14.6439 10.4438C15.0581 10.4438 15.3939 10.108 15.3939 9.69379C15.3939 9.27958 15.0581 8.94379 14.6439 8.94379L10.8971 8.94379C10.697 8.94379 10.5051 9.02381 10.3642 9.16604C10.2234 9.30827 10.1452 9.50091 10.1472 9.70107L10.1832 13.4118C10.1872 13.826 10.5263 14.1585 10.9404 14.1545C11.3546 14.1504 11.6872 13.8114 11.6831 13.3972L11.6649 11.5224L15.2305 15.088C15.5234 15.3809 15.9983 15.3809 16.2912 15.088C16.5841 14.7951 16.5841 14.3202 16.2912 14.0273L12.7076 10.4438L14.6439 10.4438Z" fill="currentColor" />
</svg>
