<svg width="54" height="52" viewBox="0 0 54 52" fill="none" xmlns="http://www.w3.org/2000/svg">
  <path fill-rule="evenodd" clip-rule="evenodd" d="M9 1.5C9 0.671573 8.57843 0 7.75 0C6.92157 0 6.5 0.671573 6.5 1.5V5.5H6C2.68629 5.5 0 8.18629 0 11.5V20.5C0 23.8137 2.68629 26.5 6 26.5H6.5V50C6.5 50.8284 6.92157 51.5 7.75 51.5C8.57843 51.5 9 50.8284 9 50V37.75H45V50C45 50.8284 45.4216 51.5 46.25 51.5C47.0784 51.5 47.5 50.8284 47.5 50V26.5H48C51.3137 26.5 54 23.8137 54 20.5V11.5C54 8.18629 51.3137 5.5 48 5.5H47.5V1.5C47.5 0.671573 47.0784 0 46.25 0C45.4216 0 45 0.671573 45 1.5V5.5H9V1.5ZM45 26.5H9V35.25H45V26.5ZM48 8H44.1995L50.3676 22.875C51.0375 22.2067 51.5 21.33 51.5 20.5V11.5C51.5 9.84315 49.6569 8 48 8ZM31.1995 8H41.4522L48.0823 23.9985C48.0548 23.9995 48.0274 24 48 24H37.8341L31.1995 8ZM28.4522 8L35.0829 24H25.3341L18.6995 8H28.4522ZM15.9522 8L22.5829 24H12.5252L5.89174 8.00259C5.9279 8.00087 5.96399 8 6 8H15.9522ZM3.61628 9.14113L9.77405 24H6C4.34315 24 2.5 22.1569 2.5 20.5V11.5C2.5 10.6767 2.95509 9.80742 3.61628 9.14113Z" fill="currentColor" />
</svg>
