<svg width="64" height="52" viewBox="0 0 64 52" fill="none" xmlns="http://www.w3.org/2000/svg">
  <path fill-rule="evenodd" clip-rule="evenodd" d="M45.8182 28.5455C45.8182 36.3779 39.4688 42.7273 31.6364 42.7273C23.804 42.7273 17.4545 36.3779 17.4545 28.5455C17.4545 20.7131 23.804 14.3636 31.6364 14.3636C39.4688 14.3636 45.8182 20.7131 45.8182 28.5455ZM38.7962 36.7764C36.8802 38.4445 34.3762 39.4545 31.6364 39.4545C28.7631 39.4545 26.1492 38.3437 24.2008 36.5281C24.265 36.3995 24.3333 36.275 24.4057 36.1543C24.8381 35.4323 25.4545 34.7772 26.313 34.1695C27.2714 35.0714 28.4805 35.7314 29.8583 36.0286C32.4396 36.6945 35.0146 35.9273 36.8003 34.2559C37.6149 34.9023 38.3142 35.7449 38.7962 36.7764ZM40.8759 34.3481C40.233 33.3461 39.432 32.4936 38.5344 31.8042C38.7366 31.3419 38.8948 30.8522 39.0028 30.3393C39.8499 26.3158 37.5352 22.1432 33.3423 21.2392C29.2091 20.1729 25.0921 22.781 24.2056 26.8919C23.7713 28.5755 23.9466 30.2564 24.5848 31.7174C23.6424 32.3839 22.8438 33.1472 22.2086 34.0376C21.2669 32.4246 20.7273 30.548 20.7273 28.5455C20.7273 22.5205 25.6114 17.6364 31.6364 17.6364C37.6613 17.6364 42.5455 22.5205 42.5455 28.5455C42.5455 30.6779 41.9336 32.6675 40.8759 34.3481ZM27.1335 27.5465C27.6574 25.0577 30.1396 23.4984 32.615 24.1498L32.6511 24.1593L32.6877 24.167C35.1045 24.6758 36.614 27.1236 36.0672 29.7213C35.5432 32.2101 33.061 33.7693 30.5857 33.1179L30.5495 33.1084L30.5129 33.1007C28.0241 32.5768 26.4648 30.0945 27.1162 27.6192L27.1258 27.5831L27.1335 27.5465Z" fill="currentColor" />
  <path fill-rule="evenodd" clip-rule="evenodd" d="M41.4545 0.727272H21.8182C21.8182 -0.909091 21.8162 0.727274 21.8162 0.727274L21.8141 0.727277L21.8098 0.727293L21.8005 0.727362L21.7793 0.72768C21.764 0.727984 21.7465 0.728488 21.7268 0.729288C21.6874 0.730889 21.6393 0.73368 21.5831 0.738444C21.4707 0.747962 21.3256 0.76542 21.1537 0.797243C20.8103 0.860849 20.3568 0.982495 19.8456 1.21485C18.8051 1.68781 17.5922 2.59009 16.5968 4.24901L16.5916 4.25767L12.793 10.7697C12.712 10.8913 12.6374 11.004 12.568 11.1086C12.117 11.7896 11.8904 12.1318 11.6043 12.3821C11.409 12.553 11.1331 12.7273 10.3636 12.7273H7.09091C5.33048 12.7273 3.54307 13.0094 2.1697 14.0149C0.691109 15.0974 0 16.7799 0 18.8636V46C0 47.4957 0.561433 49.012 1.70655 50.1571C2.86707 51.3176 4.52795 52 6.54545 52H57.2727C58.0826 52 59.3926 51.6668 60.5786 50.8256C61.8355 49.934 62.9791 48.4506 63.2601 46.203L63.2727 46.1019V18.7273C63.2727 15.7787 61.0349 12.7273 57.2727 12.7273H52.9091C52.2779 12.7273 51.9535 12.6236 51.7031 12.4566C51.4223 12.2694 51.0366 11.8688 50.5545 10.9046L50.5309 10.8574L46.7116 4.30997C46.098 3.09888 44.5928 0.727272 41.4545 0.727272ZM21.7497 4.01526C21.8011 4.00573 21.8368 4.00161 21.8537 4H41.4545C42.6369 4 43.3156 4.83567 43.8091 5.82271L43.8327 5.86988L47.6517 12.4168C48.255 13.6114 48.9539 14.5572 49.8878 15.1797C50.8646 15.831 51.9039 16 52.9091 16H57.2727C58.9651 16 60 17.3123 60 18.7273V45.8905C59.8276 47.0755 59.2587 47.7493 58.6851 48.1562C58.3746 48.3765 58.0504 48.5252 57.7688 48.6172C57.629 48.6628 57.5076 48.6919 57.4133 48.7089C57.3273 48.7243 57.2801 48.7269 57.2727 48.7273H6.54545C5.29023 48.7273 4.49657 48.3188 4.02072 47.8429C3.52948 47.3517 3.27273 46.6861 3.27273 46V18.8636C3.27273 17.5383 3.67253 16.9707 4.10303 16.6555C4.63875 16.2633 5.57861 16 7.09091 16H10.3636C11.776 16 12.8637 15.6288 13.7594 14.8451C14.4085 14.2771 14.9168 13.5001 15.3408 12.8518C15.4105 12.7453 15.478 12.6421 15.5434 12.5441L15.5706 12.5032L19.408 5.9247C20.0477 4.86211 20.7415 4.40257 21.1999 4.19424C21.4387 4.08569 21.6329 4.03688 21.7497 4.01526Z" fill="currentColor" />
</svg>
