<svg version="1.1" xmlns="http://www.w3.org/2000/svg" width="16" height="16" viewBox="0 0 16 16" fill="currentColor">
  <title>dots</title>
  <path d="M5.11 8c0 0.684-0.554 1.238-1.238 1.238s-1.238-0.554-1.238-1.238c0-0.684 0.554-1.238 1.238-1.238s1.238 0.554 1.238 1.238z"></path>
  <path d="M13.367 8c0 0.684-0.554 1.238-1.238 1.238s-1.238-0.554-1.238-1.238c0-0.684 0.554-1.238 1.238-1.238s1.238 0.554 1.238 1.238z"></path>
  <path d="M9.238 8c0 0.684-0.554 1.238-1.238 1.238s-1.238-0.554-1.238-1.238c0-0.684 0.554-1.238 1.238-1.238s1.238 0.554 1.238 1.238z"></path>
</svg>
