<svg width="13" height="17" viewBox="0 0 13 17" fill="none" xmlns="http://www.w3.org/2000/svg">
  <path fill-rule="evenodd" clip-rule="evenodd" d="M12.25 17C12.6642 17 13 16.6642 13 16.25C13 15.8358 12.6642 15.5 12.25 15.5L6.76429 15.5L1.27857 15.5C0.864358 15.5 0.528571 15.8358 0.528571 16.25C0.528571 16.6642 0.864358 17 1.27857 17L6.76429 17L12.25 17ZM6.47865 14.658C6.56332 14.6929 6.65577 14.7127 6.75269 14.7142C6.75655 14.7143 6.76041 14.7143 6.76428 14.7143C6.76816 14.7143 6.77202 14.7143 6.77588 14.7142C6.96394 14.7113 7.15112 14.6381 7.29462 14.4946L11.866 9.92319C12.1589 9.6303 12.1589 9.15542 11.866 8.86253C11.5732 8.56964 11.0983 8.56964 10.8054 8.86253L7.51428 12.1536L7.51429 1.62143C7.51429 1.20721 7.1785 0.871429 6.76429 0.871429C6.35007 0.871429 6.01429 1.20722 6.01429 1.62143L6.01428 12.1536L2.72319 8.86253C2.43029 8.56963 1.95542 8.56963 1.66253 8.86253C1.36963 9.15542 1.36963 9.63029 1.66253 9.92319L6.23395 14.4946C6.30625 14.5669 6.38965 14.6214 6.47865 14.658Z" fill="currentColor" />
</svg>
