<svg width="12" height="8" viewBox="0 0 12 8" fill="none" xmlns="http://www.w3.org/2000/svg">
<path fill-rule="evenodd" clip-rule="evenodd" d="M0.25 1C0.25 0.585786 0.585786 0.25 1 0.25H11C11.4142 0.25 11.75 0.585786 11.75 1C11.75 1.41421 11.4142 1.75 11 1.75H1C0.585786 1.75 0.25 1.41421 0.25 1ZM0.25 4C0.25 3.58579 0.585786 3.25 1 3.25H11C11.4142 3.25 11.75 3.58579 11.75 4C11.75 4.41421 11.4142 4.75 11 4.75H1C0.585786 4.75 0.25 4.41421 0.25 4ZM1 6.25C0.585786 6.25 0.25 6.58579 0.25 7C0.25 7.41421 0.585786 7.75 1 7.75H11C11.4142 7.75 11.75 7.41421 11.75 7C11.75 6.58579 11.4142 6.25 11 6.25H1Z" fill="#F77B78"/>
</svg>
