<svg width="16" height="18" viewBox="0 0 16 18" fill="currentColor" xmlns="http://www.w3.org/2000/svg">
  <path d="M11.236 1.64592L10.7057 1.11559L11.236 1.64592ZM3.19343 9.6885L2.6631 9.15817L2.5379 9.28336L2.48192 9.45133L3.19343 9.6885ZM1.73114 14.0754L1.01963 13.8382C0.929797 14.1077 0.999939 14.4048 1.20081 14.6057C1.40169 14.8066 1.69881 14.8767 1.96831 14.7869L1.73114 14.0754ZM6.118 12.6131L6.35517 13.3246L6.52314 13.2686L6.64833 13.1434L6.118 12.6131ZM1 16.25C0.585786 16.25 0.25 16.5858 0.25 17C0.25 17.4142 0.585786 17.75 1 17.75V16.25ZM14.1606 17.75C14.5748 17.75 14.9106 17.4142 14.9106 17C14.9106 16.5858 14.5748 16.25 14.1606 16.25V17.75ZM10.7057 1.11559L2.6631 9.15817L3.72376 10.2188L11.7663 2.17625L10.7057 1.11559ZM2.48192 9.45133L1.01963 13.8382L2.44266 14.3125L3.90494 9.92567L2.48192 9.45133ZM1.96831 14.7869L6.35517 13.3246L5.88083 11.9016L1.49397 13.3638L1.96831 14.7869ZM6.64833 13.1434L14.6909 5.10083L13.6302 4.04016L5.58767 12.0827L6.64833 13.1434ZM14.6909 5.10083C15.0195 4.77225 15.4063 4.19697 15.5223 3.48462C15.6458 2.72575 15.4487 1.87335 14.6909 1.11559L13.6302 2.17625C14.0423 2.58832 14.0889 2.9545 14.0418 3.2436C13.9872 3.57922 13.7891 3.88132 13.6302 4.04016L14.6909 5.10083ZM14.6909 1.11559C13.9331 0.357833 13.0807 0.16066 12.3219 0.284196C11.6095 0.400161 11.0343 0.787013 10.7057 1.11559L11.7663 2.17625C11.9252 2.0174 12.2273 1.81934 12.5629 1.76471C12.852 1.71764 13.2182 1.76418 13.6302 2.17625L14.6909 1.11559ZM1 17.75C1.01004 17.75 1.02009 17.75 1.03015 17.75C1.04021 17.75 1.05028 17.75 1.06036 17.75C1.07044 17.75 1.08053 17.75 1.09064 17.75C1.10074 17.75 1.11086 17.75 1.12098 17.75C1.1311 17.75 1.14124 17.75 1.15139 17.75C1.16153 17.75 1.17169 17.75 1.18186 17.75C1.19202 17.75 1.2022 17.75 1.21239 17.75C1.22258 17.75 1.23278 17.75 1.24298 17.75C1.25319 17.75 1.26341 17.75 1.27364 17.75C1.28387 17.75 1.29411 17.75 1.30436 17.75C1.31461 17.75 1.32487 17.75 1.33514 17.75C1.34541 17.75 1.35569 17.75 1.36598 17.75C1.37627 17.75 1.38657 17.75 1.39688 17.75C1.40719 17.75 1.41751 17.75 1.42784 17.75C1.43817 17.75 1.44851 17.75 1.45886 17.75C1.46921 17.75 1.47957 17.75 1.48994 17.75C1.50031 17.75 1.51069 17.75 1.52108 17.75C1.53146 17.75 1.54186 17.75 1.55227 17.75C1.56268 17.75 1.57309 17.75 1.58352 17.75C1.59395 17.75 1.60438 17.75 1.61483 17.75C1.62527 17.75 1.63573 17.75 1.64619 17.75C1.65666 17.75 1.66713 17.75 1.67761 17.75C1.68809 17.75 1.69859 17.75 1.70909 17.75C1.71959 17.75 1.7301 17.75 1.74062 17.75C1.75114 17.75 1.76166 17.75 1.7722 17.75C1.78274 17.75 1.79328 17.75 1.80384 17.75C1.81439 17.75 1.82496 17.75 1.83553 17.75C1.8461 17.75 1.85668 17.75 1.86727 17.75C1.87786 17.75 1.88846 17.75 1.89907 17.75C1.90968 17.75 1.92029 17.75 1.93092 17.75C1.94154 17.75 1.95218 17.75 1.96282 17.75C1.97346 17.75 1.98411 17.75 1.99477 17.75C2.00543 17.75 2.01609 17.75 2.02677 17.75C2.03744 17.75 2.04813 17.75 2.05882 17.75C2.06951 17.75 2.08021 17.75 2.09092 17.75C2.10163 17.75 2.11234 17.75 2.12307 17.75C2.13379 17.75 2.14452 17.75 2.15526 17.75C2.166 17.75 2.17675 17.75 2.18751 17.75C2.19826 17.75 2.20903 17.75 2.2198 17.75C2.23057 17.75 2.24135 17.75 2.25214 17.75C2.26293 17.75 2.27372 17.75 2.28453 17.75C2.29533 17.75 2.30614 17.75 2.31696 17.75C2.32778 17.75 2.3386 17.75 2.34943 17.75C2.36027 17.75 2.37111 17.75 2.38196 17.75C2.3928 17.75 2.40366 17.75 2.41452 17.75C2.42539 17.75 2.43626 17.75 2.44713 17.75C2.45801 17.75 2.4689 17.75 2.47979 17.75C2.49068 17.75 2.50158 17.75 2.51249 17.75C2.52339 17.75 2.5343 17.75 2.54523 17.75C2.55615 17.75 2.56707 17.75 2.57801 17.75C2.58894 17.75 2.59988 17.75 2.61083 17.75C2.62178 17.75 2.63273 17.75 2.6437 17.75C2.65466 17.75 2.66563 17.75 2.6766 17.75C2.68758 17.75 2.69856 17.75 2.70955 17.75C2.72053 17.75 2.73153 17.75 2.74253 17.75C2.75353 17.75 2.76454 17.75 2.77555 17.75C2.78657 17.75 2.79759 17.75 2.80862 17.75C2.81965 17.75 2.83068 17.75 2.84172 17.75C2.85276 17.75 2.8638 17.75 2.87486 17.75C2.88591 17.75 2.89697 17.75 2.90803 17.75C2.9191 17.75 2.93017 17.75 2.94125 17.75C2.95232 17.75 2.96341 17.75 2.97449 17.75C2.98558 17.75 2.99668 17.75 3.00778 17.75C3.01888 17.75 3.02999 17.75 3.0411 17.75C3.05221 17.75 3.06333 17.75 3.07445 17.75C3.08558 17.75 3.09671 17.75 3.10784 17.75C3.11898 17.75 3.13012 17.75 3.14126 17.75C3.15241 17.75 3.16356 17.75 3.17472 17.75C3.18588 17.75 3.19704 17.75 3.20821 17.75C3.21938 17.75 3.23055 17.75 3.24173 17.75C3.25291 17.75 3.26409 17.75 3.27528 17.75C3.28647 17.75 3.29767 17.75 3.30887 17.75C3.32007 17.75 3.33127 17.75 3.34248 17.75C3.35369 17.75 3.36491 17.75 3.37613 17.75C3.38735 17.75 3.39857 17.75 3.4098 17.75C3.42103 17.75 3.43227 17.75 3.44351 17.75C3.45475 17.75 3.46599 17.75 3.47724 17.75C3.48849 17.75 3.49974 17.75 3.511 17.75C3.52226 17.75 3.53353 17.75 3.54479 17.75C3.55606 17.75 3.56733 17.75 3.57861 17.75C3.58989 17.75 3.60117 17.75 3.61246 17.75C3.62374 17.75 3.63503 17.75 3.64633 17.75C3.65762 17.75 3.66892 17.75 3.68022 17.75C3.69153 17.75 3.70283 17.75 3.71415 17.75C3.72546 17.75 3.73677 17.75 3.74809 17.75C3.75941 17.75 3.77074 17.75 3.78206 17.75C3.79339 17.75 3.80472 17.75 3.81606 17.75C3.8274 17.75 3.83874 17.75 3.85008 17.75C3.86142 17.75 3.87277 17.75 3.88412 17.75C3.89547 17.75 3.90683 17.75 3.91819 17.75C3.92955 17.75 3.94091 17.75 3.95228 17.75C3.96364 17.75 3.97501 17.75 3.98638 17.75C3.99776 17.75 4.00913 17.75 4.02051 17.75C4.03189 17.75 4.04328 17.75 4.05466 17.75C4.06605 17.75 4.07744 17.75 4.08884 17.75C4.10023 17.75 4.11163 17.75 4.12303 17.75C4.13443 17.75 4.14583 17.75 4.15723 17.75C4.16864 17.75 4.18005 17.75 4.19146 17.75C4.20288 17.75 4.21429 17.75 4.22571 17.75C4.23713 17.75 4.24855 17.75 4.25997 17.75C4.2714 17.75 4.28282 17.75 4.29425 17.75C4.30568 17.75 4.31712 17.75 4.32855 17.75C4.33999 17.75 4.35143 17.75 4.36287 17.75C4.37431 17.75 4.38575 17.75 4.3972 17.75C4.40864 17.75 4.42009 17.75 4.43154 17.75C4.44299 17.75 4.45445 17.75 4.4659 17.75C4.47736 17.75 4.48882 17.75 4.50028 17.75C4.51174 17.75 4.5232 17.75 4.53466 17.75C4.54613 17.75 4.5576 17.75 4.56907 17.75C4.58054 17.75 4.59201 17.75 4.60348 17.75C4.61495 17.75 4.62643 17.75 4.63791 17.75C4.64938 17.75 4.66086 17.75 4.67235 17.75C4.68383 17.75 4.69531 17.75 4.7068 17.75C4.71828 17.75 4.72977 17.75 4.74126 17.75C4.75275 17.75 4.76424 17.75 4.77573 17.75C4.78722 17.75 4.79871 17.75 4.81021 17.75C4.8217 17.75 4.8332 17.75 4.8447 17.75C4.8562 17.75 4.8677 17.75 4.8792 17.75C4.8907 17.75 4.9022 17.75 4.91371 17.75C4.92521 17.75 4.93672 17.75 4.94822 17.75C4.95973 17.75 4.97124 17.75 4.98275 17.75C4.99425 17.75 5.00576 17.75 5.01728 17.75C5.02879 17.75 5.0403 17.75 5.05181 17.75C5.06333 17.75 5.07484 17.75 5.08635 17.75C5.09787 17.75 5.10939 17.75 5.1209 17.75C5.13242 17.75 5.14394 17.75 5.15546 17.75C5.16698 17.75 5.17849 17.75 5.19001 17.75C5.20153 17.75 5.21305 17.75 5.22458 17.75C5.2361 17.75 5.24762 17.75 5.25914 17.75C5.27066 17.75 5.28219 17.75 5.29371 17.75C5.30523 17.75 5.31676 17.75 5.32828 17.75C5.33981 17.75 5.35133 17.75 5.36285 17.75C5.37438 17.75 5.3859 17.75 5.39743 17.75C5.40895 17.75 5.42048 17.75 5.432 17.75C5.44353 17.75 5.45506 17.75 5.46658 17.75C5.47811 17.75 5.48963 17.75 5.50116 17.75C5.51268 17.75 5.52421 17.75 5.53573 17.75C5.54726 17.75 5.55879 17.75 5.57031 17.75C5.58184 17.75 5.59336 17.75 5.60488 17.75C5.61641 17.75 5.62793 17.75 5.63946 17.75C5.65098 17.75 5.6625 17.75 5.67403 17.75C5.68555 17.75 5.69707 17.75 5.70859 17.75C5.72012 17.75 5.73164 17.75 5.74316 17.75C5.75468 17.75 5.7662 17.75 5.77772 17.75C5.78924 17.75 5.80076 17.75 5.81228 17.75C5.82379 17.75 5.83531 17.75 5.84683 17.75C5.85834 17.75 5.86986 17.75 5.88137 17.75C5.89289 17.75 5.9044 17.75 5.91591 17.75C5.92743 17.75 5.93894 17.75 5.95045 17.75C5.96196 17.75 5.97347 17.75 5.98498 17.75C5.99648 17.75 6.00799 17.75 6.0195 17.75C6.031 17.75 6.04251 17.75 6.05401 17.75C6.06551 17.75 6.07701 17.75 6.08851 17.75C6.10002 17.75 6.11151 17.75 6.12301 17.75C6.13451 17.75 6.146 17.75 6.1575 17.75C6.16899 17.75 6.18048 17.75 6.19198 17.75C6.20347 17.75 6.21496 17.75 6.22644 17.75C6.23793 17.75 6.24942 17.75 6.2609 17.75C6.27238 17.75 6.28387 17.75 6.29535 17.75C6.30683 17.75 6.3183 17.75 6.32978 17.75C6.34126 17.75 6.35273 17.75 6.3642 17.75C6.37567 17.75 6.38714 17.75 6.39861 17.75C6.41008 17.75 6.42155 17.75 6.43301 17.75C6.44447 17.75 6.45593 17.75 6.46739 17.75C6.47885 17.75 6.49031 17.75 6.50176 17.75C6.51322 17.75 6.52467 17.75 6.53612 17.75C6.54757 17.75 6.55901 17.75 6.57046 17.75C6.5819 17.75 6.59334 17.75 6.60478 17.75C6.61622 17.75 6.62766 17.75 6.63909 17.75C6.65052 17.75 6.66195 17.75 6.67338 17.75C6.68481 17.75 6.69623 17.75 6.70766 17.75C6.71908 17.75 6.7305 17.75 6.74191 17.75C6.75333 17.75 6.76474 17.75 6.77615 17.75C6.78756 17.75 6.79897 17.75 6.81038 17.75C6.82178 17.75 6.83318 17.75 6.84458 17.75C6.85598 17.75 6.86737 17.75 6.87876 17.75C6.89015 17.75 6.90154 17.75 6.91293 17.75C6.92431 17.75 6.93569 17.75 6.94707 17.75C6.95845 17.75 6.96982 17.75 6.98119 17.75C6.99256 17.75 7.00393 17.75 7.01529 17.75C7.02666 17.75 7.03801 17.75 7.04937 17.75C7.06073 17.75 7.07208 17.75 7.08343 17.75C7.09478 17.75 7.10612 17.75 7.11746 17.75C7.1288 17.75 7.14014 17.75 7.15147 17.75C7.16281 17.75 7.17414 17.75 7.18546 17.75C7.19679 17.75 7.20811 17.75 7.21942 17.75C7.23074 17.75 7.24205 17.75 7.25336 17.75C7.26467 17.75 7.27598 17.75 7.28728 17.75C7.29858 17.75 7.30987 17.75 7.32116 17.75C7.33246 17.75 7.34374 17.75 7.35502 17.75C7.36631 17.75 7.37759 17.75 7.38886 17.75C7.40013 17.75 7.4114 17.75 7.42267 17.75C7.43393 17.75 7.44519 17.75 7.45645 17.75C7.4677 17.75 7.47895 17.75 7.4902 17.75C7.50144 17.75 7.51269 17.75 7.52392 17.75C7.53516 17.75 7.54639 17.75 7.55762 17.75C7.56884 17.75 7.58006 17.75 7.59128 17.75C7.6025 17.75 7.61371 17.75 7.62492 17.75C7.63612 17.75 7.64732 17.75 7.65852 17.75C7.66972 17.75 7.68091 17.75 7.69209 17.75C7.70328 17.75 7.71446 17.75 7.72563 17.75C7.73681 17.75 7.74798 17.75 7.75914 17.75C7.77031 17.75 7.78147 17.75 7.79262 17.75C7.80377 17.75 7.81492 17.75 7.82606 17.75C7.83721 17.75 7.84834 17.75 7.85948 17.75C7.87061 17.75 7.88173 17.75 7.89285 17.75C7.90397 17.75 7.91509 17.75 7.92619 17.75C7.9373 17.75 7.9484 17.75 7.9595 17.75C7.9706 17.75 7.98169 17.75 7.99277 17.75C8.00386 17.75 8.01494 17.75 8.02601 17.75C8.03708 17.75 8.04815 17.75 8.05921 17.75C8.07027 17.75 8.08132 17.75 8.09237 17.75C8.10342 17.75 8.11446 17.75 8.1255 17.75C8.13653 17.75 8.14756 17.75 8.15858 17.75C8.16961 17.75 8.18062 17.75 8.19163 17.75C8.20264 17.75 8.21365 17.75 8.22464 17.75C8.23564 17.75 8.24663 17.75 8.25761 17.75C8.2686 17.75 8.27957 17.75 8.29054 17.75C8.30151 17.75 8.31248 17.75 8.32343 17.75C8.33439 17.75 8.34534 17.75 8.35628 17.75C8.36723 17.75 8.37816 17.75 8.38909 17.75C8.40002 17.75 8.41094 17.75 8.42186 17.75C8.43278 17.75 8.44368 17.75 8.45458 17.75C8.46549 17.75 8.47638 17.75 8.48727 17.75C8.49815 17.75 8.50903 17.75 8.51991 17.75C8.53078 17.75 8.54164 17.75 8.5525 17.75C8.56336 17.75 8.57421 17.75 8.58505 17.75C8.59589 17.75 8.60673 17.75 8.61756 17.75C8.62839 17.75 8.63921 17.75 8.65002 17.75C8.66083 17.75 8.67164 17.75 8.68243 17.75C8.69323 17.75 8.70402 17.75 8.7148 17.75C8.72558 17.75 8.73636 17.75 8.74713 17.75C8.75789 17.75 8.76865 17.75 8.7794 17.75C8.79015 17.75 8.80089 17.75 8.81163 17.75C8.82236 17.75 8.83309 17.75 8.84381 17.75C8.85453 17.75 8.86524 17.75 8.87594 17.75C8.88664 17.75 8.89734 17.75 8.90802 17.75C8.91871 17.75 8.92938 17.75 8.94005 17.75C8.95072 17.75 8.96138 17.75 8.97204 17.75C8.98269 17.75 8.99333 17.75 9.00397 17.75C9.0146 17.75 9.02523 17.75 9.03585 17.75C9.04647 17.75 9.05708 17.75 9.06768 17.75C9.07828 17.75 9.08887 17.75 9.09945 17.75C9.11004 17.75 9.12061 17.75 9.13118 17.75C9.14175 17.75 9.1523 17.75 9.16285 17.75C9.1734 17.75 9.18394 17.75 9.19447 17.75C9.205 17.75 9.21552 17.75 9.22604 17.75C9.23655 17.75 9.24705 17.75 9.25755 17.75C9.26804 17.75 9.27852 17.75 9.289 17.75C9.29948 17.75 9.30994 17.75 9.3204 17.75C9.33086 17.75 9.34131 17.75 9.35174 17.75C9.36218 17.75 9.37261 17.75 9.38303 17.75C9.39345 17.75 9.40386 17.75 9.41426 17.75C9.42466 17.75 9.43505 17.75 9.44544 17.75C9.45582 17.75 9.46619 17.75 9.47655 17.75C9.48691 17.75 9.49726 17.75 9.50761 17.75C9.51795 17.75 9.52828 17.75 9.53861 17.75C9.54893 17.75 9.55924 17.75 9.56954 17.75C9.57985 17.75 9.59014 17.75 9.60042 17.75C9.61071 17.75 9.62098 17.75 9.63124 17.75C9.64151 17.75 9.65176 17.75 9.662 17.75C9.67224 17.75 9.68248 17.75 9.6927 17.75C9.70292 17.75 9.71313 17.75 9.72333 17.75C9.73353 17.75 9.74373 17.75 9.75391 17.75C9.76409 17.75 9.77426 17.75 9.78442 17.75C9.79458 17.75 9.80472 17.75 9.81486 17.75C9.825 17.75 9.83513 17.75 9.84525 17.75C9.85536 17.75 9.86547 17.75 9.87557 17.75C9.88566 17.75 9.89575 17.75 9.90582 17.75C9.91589 17.75 9.92596 17.75 9.93601 17.75C9.94606 17.75 9.9561 17.75 9.96613 17.75C9.97616 17.75 9.98618 17.75 9.99619 17.75C10.0062 17.75 10.0162 17.75 10.0262 17.75C10.0362 17.75 10.0461 17.75 10.0561 17.75C10.0661 17.75 10.076 17.75 10.086 17.75C10.0959 17.75 10.1058 17.75 10.1158 17.75C10.1257 17.75 10.1356 17.75 10.1455 17.75C10.1554 17.75 10.1652 17.75 10.1751 17.75C10.185 17.75 10.1949 17.75 10.2047 17.75C10.2146 17.75 10.2244 17.75 10.2342 17.75C10.244 17.75 10.2539 17.75 10.2637 17.75C10.2735 17.75 10.2832 17.75 10.293 17.75C10.3028 17.75 10.3126 17.75 10.3223 17.75C10.3321 17.75 10.3418 17.75 10.3515 17.75C10.3613 17.75 10.371 17.75 10.3807 17.75C10.3904 17.75 10.4001 17.75 10.4098 17.75C10.4195 17.75 10.4291 17.75 10.4388 17.75C10.4484 17.75 10.4581 17.75 10.4677 17.75C10.4774 17.75 10.487 17.75 10.4966 17.75C10.5062 17.75 10.5158 17.75 10.5254 17.75C10.5349 17.75 10.5445 17.75 10.5541 17.75C10.5636 17.75 10.5732 17.75 10.5827 17.75C10.5922 17.75 10.6018 17.75 10.6113 17.75C10.6208 17.75 10.6303 17.75 10.6397 17.75C10.6492 17.75 10.6587 17.75 10.6681 17.75C10.6776 17.75 10.687 17.75 10.6965 17.75C10.7059 17.75 10.7153 17.75 10.7247 17.75C10.7341 17.75 10.7435 17.75 10.7529 17.75C10.7623 17.75 10.7716 17.75 10.781 17.75C10.7903 17.75 10.7997 17.75 10.809 17.75C10.8183 17.75 10.8276 17.75 10.8369 17.75C10.8462 17.75 10.8555 17.75 10.8647 17.75C10.874 17.75 10.8833 17.75 10.8925 17.75C10.9018 17.75 10.911 17.75 10.9202 17.75C10.9294 17.75 10.9386 17.75 10.9478 17.75C10.957 17.75 10.9662 17.75 10.9753 17.75C10.9845 17.75 10.9936 17.75 11.0028 17.75C11.0119 17.75 11.021 17.75 11.0301 17.75C11.0392 17.75 11.0483 17.75 11.0574 17.75C11.0665 17.75 11.0755 17.75 11.0846 17.75C11.0936 17.75 11.1026 17.75 11.1117 17.75C11.1207 17.75 11.1297 17.75 11.1387 17.75C11.1477 17.75 11.1566 17.75 11.1656 17.75C11.1746 17.75 11.1835 17.75 11.1924 17.75C11.2014 17.75 11.2103 17.75 11.2192 17.75C11.2281 17.75 11.237 17.75 11.2459 17.75C11.2547 17.75 11.2636 17.75 11.2724 17.75C11.2813 17.75 11.2901 17.75 11.2989 17.75C11.3077 17.75 11.3165 17.75 11.3253 17.75C11.3341 17.75 11.3429 17.75 11.3516 17.75C11.3604 17.75 11.3691 17.75 11.3779 17.75C11.3866 17.75 11.3953 17.75 11.404 17.75C11.4127 17.75 11.4214 17.75 11.43 17.75C11.4387 17.75 11.4473 17.75 11.456 17.75C11.4646 17.75 11.4732 17.75 11.4818 17.75C11.4904 17.75 11.499 17.75 11.5076 17.75C11.5162 17.75 11.5247 17.75 11.5333 17.75C11.5418 17.75 11.5503 17.75 11.5588 17.75C11.5673 17.75 11.5758 17.75 11.5843 17.75C11.5928 17.75 11.6013 17.75 11.6097 17.75C11.6182 17.75 11.6266 17.75 11.635 17.75C11.6434 17.75 11.6518 17.75 11.6602 17.75C11.6686 17.75 11.6769 17.75 11.6853 17.75C11.6936 17.75 11.702 17.75 11.7103 17.75C11.7186 17.75 11.7269 17.75 11.7352 17.75C11.7435 17.75 11.7518 17.75 11.76 17.75C11.7683 17.75 11.7765 17.75 11.7847 17.75C11.793 17.75 11.8012 17.75 11.8094 17.75C11.8175 17.75 11.8257 17.75 11.8339 17.75C11.842 17.75 11.8502 17.75 11.8583 17.75C11.8664 17.75 11.8745 17.75 11.8826 17.75C11.8907 17.75 11.8988 17.75 11.9068 17.75C11.9149 17.75 11.9229 17.75 11.9309 17.75C11.939 17.75 11.947 17.75 11.955 17.75C11.9629 17.75 11.9709 17.75 11.9789 17.75C11.9868 17.75 11.9948 17.75 12.0027 17.75C12.0106 17.75 12.0185 17.75 12.0264 17.75C12.0343 17.75 12.0421 17.75 12.05 17.75C12.0578 17.75 12.0657 17.75 12.0735 17.75C12.0813 17.75 12.0891 17.75 12.0969 17.75C12.1047 17.75 12.1124 17.75 12.1202 17.75C12.1279 17.75 12.1357 17.75 12.1434 17.75C12.1511 17.75 12.1588 17.75 12.1665 17.75C12.1741 17.75 12.1818 17.75 12.1894 17.75C12.1971 17.75 12.2047 17.75 12.2123 17.75C12.2199 17.75 12.2275 17.75 12.2351 17.75C12.2426 17.75 12.2502 17.75 12.2577 17.75C12.2653 17.75 12.2728 17.75 12.2803 17.75C12.2878 17.75 12.2952 17.75 12.3027 17.75C12.3102 17.75 12.3176 17.75 12.325 17.75C12.3325 17.75 12.3399 17.75 12.3473 17.75C12.3546 17.75 12.362 17.75 12.3694 17.75C12.3767 17.75 12.3841 17.75 12.3914 17.75C12.3987 17.75 12.406 17.75 12.4133 17.75C12.4205 17.75 12.4278 17.75 12.435 17.75C12.4423 17.75 12.4495 17.75 12.4567 17.75C12.4639 17.75 12.4711 17.75 12.4783 17.75C12.4854 17.75 12.4926 17.75 12.4997 17.75C12.5068 17.75 12.5139 17.75 12.521 17.75C12.5281 17.75 12.5352 17.75 12.5422 17.75C12.5493 17.75 12.5563 17.75 12.5633 17.75C12.5703 17.75 12.5773 17.75 12.5843 17.75C12.5913 17.75 12.5982 17.75 12.6052 17.75C12.6121 17.75 12.619 17.75 12.6259 17.75C12.6328 17.75 12.6397 17.75 12.6466 17.75C12.6534 17.75 12.6603 17.75 12.6671 17.75C12.6739 17.75 12.6807 17.75 12.6875 17.75C12.6943 17.75 12.701 17.75 12.7078 17.75C12.7145 17.75 12.7212 17.75 12.7279 17.75C12.7346 17.75 12.7413 17.75 12.748 17.75C12.7547 17.75 12.7613 17.75 12.7679 17.75C12.7745 17.75 12.7811 17.75 12.7877 17.75C12.7943 17.75 12.8009 17.75 12.8074 17.75C12.814 17.75 12.8205 17.75 12.827 17.75C12.8335 17.75 12.84 17.75 12.8464 17.75C12.8529 17.75 12.8593 17.75 12.8657 17.75C12.8722 17.75 12.8786 17.75 12.885 17.75C12.8913 17.75 12.8977 17.75 12.904 17.75C12.9104 17.75 12.9167 17.75 12.923 17.75C12.9293 17.75 12.9356 17.75 12.9418 17.75C12.9481 17.75 12.9543 17.75 12.9605 17.75C12.9667 17.75 12.9729 17.75 12.9791 17.75C12.9853 17.75 12.9914 17.75 12.9976 17.75C13.0037 17.75 13.0098 17.75 13.0159 17.75C13.022 17.75 13.0281 17.75 13.0341 17.75C13.0402 17.75 13.0462 17.75 13.0522 17.75C13.0582 17.75 13.0642 17.75 13.0701 17.75C13.0761 17.75 13.082 17.75 13.088 17.75C13.0939 17.75 13.0998 17.75 13.1057 17.75C13.1115 17.75 13.1174 17.75 13.1232 17.75C13.1291 17.75 13.1349 17.75 13.1407 17.75C13.1465 17.75 13.1522 17.75 13.158 17.75C13.1637 17.75 13.1695 17.75 13.1752 17.75C13.1809 17.75 13.1866 17.75 13.1922 17.75C13.1979 17.75 13.2035 17.75 13.2091 17.75C13.2148 17.75 13.2204 17.75 13.2259 17.75C13.2315 17.75 13.2371 17.75 13.2426 17.75C13.2481 17.75 13.2536 17.75 13.2591 17.75C13.2646 17.75 13.2701 17.75 13.2755 17.75C13.2809 17.75 13.2864 17.75 13.2918 17.75C13.2972 17.75 13.3025 17.75 13.3079 17.75C13.3132 17.75 13.3186 17.75 13.3239 17.75C13.3292 17.75 13.3345 17.75 13.3397 17.75C13.345 17.75 13.3502 17.75 13.3554 17.75C13.3607 17.75 13.3659 17.75 13.371 17.75C13.3762 17.75 13.3813 17.75 13.3865 17.75C13.3916 17.75 13.3967 17.75 13.4018 17.75C13.4069 17.75 13.4119 17.75 13.417 17.75C13.422 17.75 13.427 17.75 13.432 17.75C13.437 17.75 13.4419 17.75 13.4469 17.75C13.4518 17.75 13.4567 17.75 13.4616 17.75C13.4665 17.75 13.4714 17.75 13.4763 17.75C13.4811 17.75 13.4859 17.75 13.4907 17.75C13.4955 17.75 13.5003 17.75 13.5051 17.75C13.5098 17.75 13.5146 17.75 13.5193 17.75C13.524 17.75 13.5287 17.75 13.5333 17.75C13.538 17.75 13.5426 17.75 13.5472 17.75C13.5519 17.75 13.5565 17.75 13.561 17.75C13.5656 17.75 13.5701 17.75 13.5747 17.75C13.5792 17.75 13.5837 17.75 13.5881 17.75C13.5926 17.75 13.5971 17.75 13.6015 17.75C13.6059 17.75 13.6103 17.75 13.6147 17.75C13.6191 17.75 13.6234 17.75 13.6277 17.75C13.6321 17.75 13.6364 17.75 13.6406 17.75C13.6449 17.75 13.6492 17.75 13.6534 17.75C13.6576 17.75 13.6618 17.75 13.666 17.75C13.6702 17.75 13.6744 17.75 13.6785 17.75C13.6826 17.75 13.6867 17.75 13.6908 17.75C13.6949 17.75 13.699 17.75 13.703 17.75C13.707 17.75 13.711 17.75 13.715 17.75C13.719 17.75 13.723 17.75 13.7269 17.75C13.7309 17.75 13.7348 17.75 13.7386 17.75C13.7425 17.75 13.7464 17.75 13.7502 17.75C13.7541 17.75 13.7579 17.75 13.7617 17.75C13.7654 17.75 13.7692 17.75 13.7729 17.75C13.7767 17.75 13.7804 17.75 13.7841 17.75C13.7878 17.75 13.7914 17.75 13.7951 17.75C13.7987 17.75 13.8023 17.75 13.8059 17.75C13.8095 17.75 13.813 17.75 13.8166 17.75C13.8201 17.75 13.8236 17.75 13.8271 17.75C13.8306 17.75 13.834 17.75 13.8374 17.75C13.8409 17.75 13.8443 17.75 13.8477 17.75C13.851 17.75 13.8544 17.75 13.8577 17.75C13.861 17.75 13.8644 17.75 13.8676 17.75C13.8709 17.75 13.8742 17.75 13.8774 17.75C13.8806 17.75 13.8838 17.75 13.887 17.75C13.8901 17.75 13.8933 17.75 13.8964 17.75C13.8995 17.75 13.9026 17.75 13.9057 17.75C13.9088 17.75 13.9118 17.75 13.9148 17.75C13.9178 17.75 13.9208 17.75 13.9238 17.75C13.9267 17.75 13.9297 17.75 13.9326 17.75C13.9355 17.75 13.9384 17.75 13.9412 17.75C13.9441 17.75 13.9469 17.75 13.9497 17.75C13.9525 17.75 13.9553 17.75 13.9581 17.75C13.9608 17.75 13.9635 17.75 13.9662 17.75C13.9689 17.75 13.9716 17.75 13.9742 17.75C13.9769 17.75 13.9795 17.75 13.9821 17.75C13.9847 17.75 13.9872 17.75 13.9898 17.75C13.9923 17.75 13.9948 17.75 13.9973 17.75C13.9998 17.75 14.0022 17.75 14.0047 17.75C14.0071 17.75 14.0095 17.75 14.0119 17.75C14.0142 17.75 14.0166 17.75 14.0189 17.75C14.0212 17.75 14.0235 17.75 14.0258 17.75C14.028 17.75 14.0303 17.75 14.0325 17.75C14.0347 17.75 14.0369 17.75 14.039 17.75C14.0412 17.75 14.0433 17.75 14.0454 17.75C14.0475 17.75 14.0496 17.75 14.0516 17.75C14.0537 17.75 14.0557 17.75 14.0577 17.75C14.0596 17.75 14.0616 17.75 14.0635 17.75C14.0655 17.75 14.0674 17.75 14.0692 17.75C14.0711 17.75 14.073 17.75 14.0748 17.75C14.0766 17.75 14.0784 17.75 14.0802 17.75C14.0819 17.75 14.0836 17.75 14.0854 17.75C14.0871 17.75 14.0887 17.75 14.0904 17.75C14.092 17.75 14.0937 17.75 14.0953 17.75C14.0968 17.75 14.0984 17.75 14.0999 17.75C14.1015 17.75 14.103 17.75 14.1045 17.75C14.106 17.75 14.1074 17.75 14.1088 17.75C14.1102 17.75 14.1116 17.75 14.113 17.75C14.1144 17.75 14.1157 17.75 14.117 17.75C14.1183 17.75 14.1196 17.75 14.1208 17.75C14.1221 17.75 14.1233 17.75 14.1245 17.75C14.1257 17.75 14.1269 17.75 14.128 17.75C14.1291 17.75 14.1302 17.75 14.1313 17.75C14.1324 17.75 14.1334 17.75 14.1344 17.75C14.1355 17.75 14.1364 17.75 14.1374 17.75C14.1384 17.75 14.1393 17.75 14.1402 17.75C14.1411 17.75 14.142 17.75 14.1428 17.75C14.1436 17.75 14.1445 17.75 14.1452 17.75C14.146 17.75 14.1468 17.75 14.1475 17.75C14.1482 17.75 14.1489 17.75 14.1496 17.75C14.1502 17.75 14.1509 17.75 14.1515 17.75C14.1521 17.75 14.1527 17.75 14.1532 17.75C14.1537 17.75 14.1543 17.75 14.1547 17.75C14.1552 17.75 14.1557 17.75 14.1561 17.75C14.1565 17.75 14.1569 17.75 14.1573 17.75C14.1576 17.75 14.158 17.75 14.1583 17.75C14.1586 17.75 14.1589 17.75 14.1591 17.75C14.1594 17.75 14.1596 17.75 14.1597 17.75C14.1599 17.75 14.1601 17.75 14.1602 17.75C14.1603 17.75 14.1604 17.75 14.1605 17.75C14.1605 17.75 14.1606 17.75 14.1606 17C14.1606 16.25 14.1605 16.25 14.1605 16.25C14.1604 16.25 14.1603 16.25 14.1602 16.25C14.1601 16.25 14.1599 16.25 14.1597 16.25C14.1596 16.25 14.1594 16.25 14.1591 16.25C14.1589 16.25 14.1586 16.25 14.1583 16.25C14.158 16.25 14.1576 16.25 14.1573 16.25C14.1569 16.25 14.1565 16.25 14.1561 16.25C14.1557 16.25 14.1552 16.25 14.1547 16.25C14.1543 16.25 14.1537 16.25 14.1532 16.25C14.1527 16.25 14.1521 16.25 14.1515 16.25C14.1509 16.25 14.1502 16.25 14.1496 16.25C14.1489 16.25 14.1482 16.25 14.1475 16.25C14.1468 16.25 14.146 16.25 14.1452 16.25C14.1445 16.25 14.1436 16.25 14.1428 16.25C14.142 16.25 14.1411 16.25 14.1402 16.25C14.1393 16.25 14.1384 16.25 14.1374 16.25C14.1364 16.25 14.1355 16.25 14.1344 16.25C14.1334 16.25 14.1324 16.25 14.1313 16.25C14.1302 16.25 14.1291 16.25 14.128 16.25C14.1269 16.25 14.1257 16.25 14.1245 16.25C14.1233 16.25 14.1221 16.25 14.1208 16.25C14.1196 16.25 14.1183 16.25 14.117 16.25C14.1157 16.25 14.1144 16.25 14.113 16.25C14.1116 16.25 14.1102 16.25 14.1088 16.25C14.1074 16.25 14.106 16.25 14.1045 16.25C14.103 16.25 14.1015 16.25 14.0999 16.25C14.0984 16.25 14.0968 16.25 14.0953 16.25C14.0937 16.25 14.092 16.25 14.0904 16.25C14.0887 16.25 14.0871 16.25 14.0854 16.25C14.0836 16.25 14.0819 16.25 14.0802 16.25C14.0784 16.25 14.0766 16.25 14.0748 16.25C14.073 16.25 14.0711 16.25 14.0692 16.25C14.0674 16.25 14.0655 16.25 14.0635 16.25C14.0616 16.25 14.0596 16.25 14.0577 16.25C14.0557 16.25 14.0537 16.25 14.0516 16.25C14.0496 16.25 14.0475 16.25 14.0454 16.25C14.0433 16.25 14.0412 16.25 14.039 16.25C14.0369 16.25 14.0347 16.25 14.0325 16.25C14.0303 16.25 14.028 16.25 14.0258 16.25C14.0235 16.25 14.0212 16.25 14.0189 16.25C14.0166 16.25 14.0142 16.25 14.0119 16.25C14.0095 16.25 14.0071 16.25 14.0047 16.25C14.0022 16.25 13.9998 16.25 13.9973 16.25C13.9948 16.25 13.9923 16.25 13.9898 16.25C13.9872 16.25 13.9847 16.25 13.9821 16.25C13.9795 16.25 13.9769 16.25 13.9742 16.25C13.9716 16.25 13.9689 16.25 13.9662 16.25C13.9635 16.25 13.9608 16.25 13.9581 16.25C13.9553 16.25 13.9525 16.25 13.9497 16.25C13.9469 16.25 13.9441 16.25 13.9412 16.25C13.9384 16.25 13.9355 16.25 13.9326 16.25C13.9297 16.25 13.9267 16.25 13.9238 16.25C13.9208 16.25 13.9178 16.25 13.9148 16.25C13.9118 16.25 13.9088 16.25 13.9057 16.25C13.9026 16.25 13.8995 16.25 13.8964 16.25C13.8933 16.25 13.8901 16.25 13.887 16.25C13.8838 16.25 13.8806 16.25 13.8774 16.25C13.8742 16.25 13.8709 16.25 13.8676 16.25C13.8644 16.25 13.861 16.25 13.8577 16.25C13.8544 16.25 13.851 16.25 13.8477 16.25C13.8443 16.25 13.8409 16.25 13.8374 16.25C13.834 16.25 13.8306 16.25 13.8271 16.25C13.8236 16.25 13.8201 16.25 13.8166 16.25C13.813 16.25 13.8095 16.25 13.8059 16.25C13.8023 16.25 13.7987 16.25 13.7951 16.25C13.7914 16.25 13.7878 16.25 13.7841 16.25C13.7804 16.25 13.7767 16.25 13.7729 16.25C13.7692 16.25 13.7654 16.25 13.7617 16.25C13.7579 16.25 13.7541 16.25 13.7502 16.25C13.7464 16.25 13.7425 16.25 13.7386 16.25C13.7348 16.25 13.7309 16.25 13.7269 16.25C13.723 16.25 13.719 16.25 13.715 16.25C13.711 16.25 13.707 16.25 13.703 16.25C13.699 16.25 13.6949 16.25 13.6908 16.25C13.6867 16.25 13.6826 16.25 13.6785 16.25C13.6744 16.25 13.6702 16.25 13.666 16.25C13.6618 16.25 13.6576 16.25 13.6534 16.25C13.6492 16.25 13.6449 16.25 13.6406 16.25C13.6364 16.25 13.6321 16.25 13.6277 16.25C13.6234 16.25 13.6191 16.25 13.6147 16.25C13.6103 16.25 13.6059 16.25 13.6015 16.25C13.5971 16.25 13.5926 16.25 13.5881 16.25C13.5837 16.25 13.5792 16.25 13.5747 16.25C13.5701 16.25 13.5656 16.25 13.561 16.25C13.5565 16.25 13.5519 16.25 13.5472 16.25C13.5426 16.25 13.538 16.25 13.5333 16.25C13.5287 16.25 13.524 16.25 13.5193 16.25C13.5146 16.25 13.5098 16.25 13.5051 16.25C13.5003 16.25 13.4955 16.25 13.4907 16.25C13.4859 16.25 13.4811 16.25 13.4763 16.25C13.4714 16.25 13.4665 16.25 13.4616 16.25C13.4567 16.25 13.4518 16.25 13.4469 16.25C13.4419 16.25 13.437 16.25 13.432 16.25C13.427 16.25 13.422 16.25 13.417 16.25C13.4119 16.25 13.4069 16.25 13.4018 16.25C13.3967 16.25 13.3916 16.25 13.3865 16.25C13.3813 16.25 13.3762 16.25 13.371 16.25C13.3659 16.25 13.3607 16.25 13.3554 16.25C13.3502 16.25 13.345 16.25 13.3397 16.25C13.3345 16.25 13.3292 16.25 13.3239 16.25C13.3186 16.25 13.3132 16.25 13.3079 16.25C13.3025 16.25 13.2972 16.25 13.2918 16.25C13.2864 16.25 13.2809 16.25 13.2755 16.25C13.2701 16.25 13.2646 16.25 13.2591 16.25C13.2536 16.25 13.2481 16.25 13.2426 16.25C13.2371 16.25 13.2315 16.25 13.2259 16.25C13.2204 16.25 13.2148 16.25 13.2091 16.25C13.2035 16.25 13.1979 16.25 13.1922 16.25C13.1866 16.25 13.1809 16.25 13.1752 16.25C13.1695 16.25 13.1637 16.25 13.158 16.25C13.1522 16.25 13.1465 16.25 13.1407 16.25C13.1349 16.25 13.1291 16.25 13.1232 16.25C13.1174 16.25 13.1115 16.25 13.1057 16.25C13.0998 16.25 13.0939 16.25 13.088 16.25C13.082 16.25 13.0761 16.25 13.0701 16.25C13.0642 16.25 13.0582 16.25 13.0522 16.25C13.0462 16.25 13.0402 16.25 13.0341 16.25C13.0281 16.25 13.022 16.25 13.0159 16.25C13.0098 16.25 13.0037 16.25 12.9976 16.25C12.9914 16.25 12.9853 16.25 12.9791 16.25C12.9729 16.25 12.9667 16.25 12.9605 16.25C12.9543 16.25 12.9481 16.25 12.9418 16.25C12.9356 16.25 12.9293 16.25 12.923 16.25C12.9167 16.25 12.9104 16.25 12.904 16.25C12.8977 16.25 12.8913 16.25 12.885 16.25C12.8786 16.25 12.8722 16.25 12.8657 16.25C12.8593 16.25 12.8529 16.25 12.8464 16.25C12.84 16.25 12.8335 16.25 12.827 16.25C12.8205 16.25 12.814 16.25 12.8074 16.25C12.8009 16.25 12.7943 16.25 12.7877 16.25C12.7811 16.25 12.7745 16.25 12.7679 16.25C12.7613 16.25 12.7547 16.25 12.748 16.25C12.7413 16.25 12.7346 16.25 12.7279 16.25C12.7212 16.25 12.7145 16.25 12.7078 16.25C12.701 16.25 12.6943 16.25 12.6875 16.25C12.6807 16.25 12.6739 16.25 12.6671 16.25C12.6603 16.25 12.6534 16.25 12.6466 16.25C12.6397 16.25 12.6328 16.25 12.6259 16.25C12.619 16.25 12.6121 16.25 12.6052 16.25C12.5982 16.25 12.5913 16.25 12.5843 16.25C12.5773 16.25 12.5703 16.25 12.5633 16.25C12.5563 16.25 12.5493 16.25 12.5422 16.25C12.5352 16.25 12.5281 16.25 12.521 16.25C12.5139 16.25 12.5068 16.25 12.4997 16.25C12.4926 16.25 12.4854 16.25 12.4783 16.25C12.4711 16.25 12.4639 16.25 12.4567 16.25C12.4495 16.25 12.4423 16.25 12.435 16.25C12.4278 16.25 12.4205 16.25 12.4133 16.25C12.406 16.25 12.3987 16.25 12.3914 16.25C12.3841 16.25 12.3767 16.25 12.3694 16.25C12.362 16.25 12.3546 16.25 12.3473 16.25C12.3399 16.25 12.3325 16.25 12.325 16.25C12.3176 16.25 12.3102 16.25 12.3027 16.25C12.2952 16.25 12.2878 16.25 12.2803 16.25C12.2728 16.25 12.2653 16.25 12.2577 16.25C12.2502 16.25 12.2426 16.25 12.2351 16.25C12.2275 16.25 12.2199 16.25 12.2123 16.25C12.2047 16.25 12.1971 16.25 12.1894 16.25C12.1818 16.25 12.1741 16.25 12.1665 16.25C12.1588 16.25 12.1511 16.25 12.1434 16.25C12.1357 16.25 12.1279 16.25 12.1202 16.25C12.1124 16.25 12.1047 16.25 12.0969 16.25C12.0891 16.25 12.0813 16.25 12.0735 16.25C12.0657 16.25 12.0578 16.25 12.05 16.25C12.0421 16.25 12.0343 16.25 12.0264 16.25C12.0185 16.25 12.0106 16.25 12.0027 16.25C11.9948 16.25 11.9868 16.25 11.9789 16.25C11.9709 16.25 11.9629 16.25 11.955 16.25C11.947 16.25 11.939 16.25 11.9309 16.25C11.9229 16.25 11.9149 16.25 11.9068 16.25C11.8988 16.25 11.8907 16.25 11.8826 16.25C11.8745 16.25 11.8664 16.25 11.8583 16.25C11.8502 16.25 11.842 16.25 11.8339 16.25C11.8257 16.25 11.8175 16.25 11.8094 16.25C11.8012 16.25 11.793 16.25 11.7847 16.25C11.7765 16.25 11.7683 16.25 11.76 16.25C11.7518 16.25 11.7435 16.25 11.7352 16.25C11.7269 16.25 11.7186 16.25 11.7103 16.25C11.702 16.25 11.6936 16.25 11.6853 16.25C11.6769 16.25 11.6686 16.25 11.6602 16.25C11.6518 16.25 11.6434 16.25 11.635 16.25C11.6266 16.25 11.6182 16.25 11.6097 16.25C11.6013 16.25 11.5928 16.25 11.5843 16.25C11.5758 16.25 11.5673 16.25 11.5588 16.25C11.5503 16.25 11.5418 16.25 11.5333 16.25C11.5247 16.25 11.5162 16.25 11.5076 16.25C11.499 16.25 11.4904 16.25 11.4818 16.25C11.4732 16.25 11.4646 16.25 11.456 16.25C11.4473 16.25 11.4387 16.25 11.43 16.25C11.4214 16.25 11.4127 16.25 11.404 16.25C11.3953 16.25 11.3866 16.25 11.3779 16.25C11.3691 16.25 11.3604 16.25 11.3516 16.25C11.3429 16.25 11.3341 16.25 11.3253 16.25C11.3165 16.25 11.3077 16.25 11.2989 16.25C11.2901 16.25 11.2813 16.25 11.2724 16.25C11.2636 16.25 11.2547 16.25 11.2459 16.25C11.237 16.25 11.2281 16.25 11.2192 16.25C11.2103 16.25 11.2014 16.25 11.1924 16.25C11.1835 16.25 11.1746 16.25 11.1656 16.25C11.1566 16.25 11.1477 16.25 11.1387 16.25C11.1297 16.25 11.1207 16.25 11.1117 16.25C11.1026 16.25 11.0936 16.25 11.0846 16.25C11.0755 16.25 11.0665 16.25 11.0574 16.25C11.0483 16.25 11.0392 16.25 11.0301 16.25C11.021 16.25 11.0119 16.25 11.0028 16.25C10.9936 16.25 10.9845 16.25 10.9753 16.25C10.9662 16.25 10.957 16.25 10.9478 16.25C10.9386 16.25 10.9294 16.25 10.9202 16.25C10.911 16.25 10.9018 16.25 10.8925 16.25C10.8833 16.25 10.874 16.25 10.8647 16.25C10.8555 16.25 10.8462 16.25 10.8369 16.25C10.8276 16.25 10.8183 16.25 10.809 16.25C10.7997 16.25 10.7903 16.25 10.781 16.25C10.7716 16.25 10.7623 16.25 10.7529 16.25C10.7435 16.25 10.7341 16.25 10.7247 16.25C10.7153 16.25 10.7059 16.25 10.6965 16.25C10.687 16.25 10.6776 16.25 10.6681 16.25C10.6587 16.25 10.6492 16.25 10.6397 16.25C10.6303 16.25 10.6208 16.25 10.6113 16.25C10.6018 16.25 10.5922 16.25 10.5827 16.25C10.5732 16.25 10.5636 16.25 10.5541 16.25C10.5445 16.25 10.5349 16.25 10.5254 16.25C10.5158 16.25 10.5062 16.25 10.4966 16.25C10.487 16.25 10.4774 16.25 10.4677 16.25C10.4581 16.25 10.4484 16.25 10.4388 16.25C10.4291 16.25 10.4195 16.25 10.4098 16.25C10.4001 16.25 10.3904 16.25 10.3807 16.25C10.371 16.25 10.3613 16.25 10.3515 16.25C10.3418 16.25 10.3321 16.25 10.3223 16.25C10.3126 16.25 10.3028 16.25 10.293 16.25C10.2832 16.25 10.2735 16.25 10.2637 16.25C10.2539 16.25 10.244 16.25 10.2342 16.25C10.2244 16.25 10.2146 16.25 10.2047 16.25C10.1949 16.25 10.185 16.25 10.1751 16.25C10.1652 16.25 10.1554 16.25 10.1455 16.25C10.1356 16.25 10.1257 16.25 10.1158 16.25C10.1058 16.25 10.0959 16.25 10.086 16.25C10.076 16.25 10.0661 16.25 10.0561 16.25C10.0461 16.25 10.0362 16.25 10.0262 16.25C10.0162 16.25 10.0062 16.25 9.99619 16.25C9.98618 16.25 9.97616 16.25 9.96613 16.25C9.9561 16.25 9.94606 16.25 9.93601 16.25C9.92596 16.25 9.91589 16.25 9.90582 16.25C9.89575 16.25 9.88566 16.25 9.87557 16.25C9.86547 16.25 9.85536 16.25 9.84525 16.25C9.83513 16.25 9.825 16.25 9.81486 16.25C9.80472 16.25 9.79458 16.25 9.78442 16.25C9.77426 16.25 9.76409 16.25 9.75391 16.25C9.74373 16.25 9.73353 16.25 9.72333 16.25C9.71313 16.25 9.70292 16.25 9.6927 16.25C9.68248 16.25 9.67224 16.25 9.662 16.25C9.65176 16.25 9.64151 16.25 9.63124 16.25C9.62098 16.25 9.61071 16.25 9.60042 16.25C9.59014 16.25 9.57985 16.25 9.56954 16.25C9.55924 16.25 9.54893 16.25 9.53861 16.25C9.52828 16.25 9.51795 16.25 9.50761 16.25C9.49726 16.25 9.48691 16.25 9.47655 16.25C9.46619 16.25 9.45582 16.25 9.44544 16.25C9.43505 16.25 9.42466 16.25 9.41426 16.25C9.40386 16.25 9.39345 16.25 9.38303 16.25C9.37261 16.25 9.36218 16.25 9.35174 16.25C9.34131 16.25 9.33086 16.25 9.3204 16.25C9.30994 16.25 9.29948 16.25 9.289 16.25C9.27852 16.25 9.26804 16.25 9.25755 16.25C9.24705 16.25 9.23655 16.25 9.22604 16.25C9.21552 16.25 9.205 16.25 9.19447 16.25C9.18394 16.25 9.1734 16.25 9.16285 16.25C9.1523 16.25 9.14175 16.25 9.13118 16.25C9.12061 16.25 9.11004 16.25 9.09945 16.25C9.08887 16.25 9.07828 16.25 9.06768 16.25C9.05708 16.25 9.04647 16.25 9.03585 16.25C9.02523 16.25 9.0146 16.25 9.00397 16.25C8.99333 16.25 8.98269 16.25 8.97204 16.25C8.96138 16.25 8.95072 16.25 8.94005 16.25C8.92938 16.25 8.91871 16.25 8.90802 16.25C8.89734 16.25 8.88664 16.25 8.87594 16.25C8.86524 16.25 8.85453 16.25 8.84381 16.25C8.83309 16.25 8.82236 16.25 8.81163 16.25C8.80089 16.25 8.79015 16.25 8.7794 16.25C8.76865 16.25 8.75789 16.25 8.74713 16.25C8.73636 16.25 8.72558 16.25 8.7148 16.25C8.70402 16.25 8.69323 16.25 8.68243 16.25C8.67164 16.25 8.66083 16.25 8.65002 16.25C8.63921 16.25 8.62839 16.25 8.61756 16.25C8.60673 16.25 8.59589 16.25 8.58505 16.25C8.57421 16.25 8.56336 16.25 8.5525 16.25C8.54164 16.25 8.53078 16.25 8.51991 16.25C8.50903 16.25 8.49815 16.25 8.48727 16.25C8.47638 16.25 8.46549 16.25 8.45458 16.25C8.44368 16.25 8.43278 16.25 8.42186 16.25C8.41094 16.25 8.40002 16.25 8.38909 16.25C8.37816 16.25 8.36723 16.25 8.35628 16.25C8.34534 16.25 8.33439 16.25 8.32343 16.25C8.31248 16.25 8.30151 16.25 8.29054 16.25C8.27957 16.25 8.2686 16.25 8.25761 16.25C8.24663 16.25 8.23564 16.25 8.22464 16.25C8.21365 16.25 8.20264 16.25 8.19163 16.25C8.18062 16.25 8.16961 16.25 8.15858 16.25C8.14756 16.25 8.13653 16.25 8.1255 16.25C8.11446 16.25 8.10342 16.25 8.09237 16.25C8.08132 16.25 8.07027 16.25 8.05921 16.25C8.04815 16.25 8.03708 16.25 8.02601 16.25C8.01494 16.25 8.00386 16.25 7.99277 16.25C7.98169 16.25 7.9706 16.25 7.9595 16.25C7.9484 16.25 7.9373 16.25 7.92619 16.25C7.91509 16.25 7.90397 16.25 7.89285 16.25C7.88173 16.25 7.87061 16.25 7.85948 16.25C7.84834 16.25 7.83721 16.25 7.82606 16.25C7.81492 16.25 7.80377 16.25 7.79262 16.25C7.78147 16.25 7.77031 16.25 7.75914 16.25C7.74798 16.25 7.73681 16.25 7.72563 16.25C7.71446 16.25 7.70328 16.25 7.69209 16.25C7.68091 16.25 7.66972 16.25 7.65852 16.25C7.64732 16.25 7.63612 16.25 7.62492 16.25C7.61371 16.25 7.6025 16.25 7.59128 16.25C7.58006 16.25 7.56884 16.25 7.55762 16.25C7.54639 16.25 7.53516 16.25 7.52392 16.25C7.51269 16.25 7.50144 16.25 7.4902 16.25C7.47895 16.25 7.4677 16.25 7.45645 16.25C7.44519 16.25 7.43393 16.25 7.42267 16.25C7.4114 16.25 7.40013 16.25 7.38886 16.25C7.37759 16.25 7.36631 16.25 7.35502 16.25C7.34374 16.25 7.33246 16.25 7.32116 16.25C7.30987 16.25 7.29858 16.25 7.28728 16.25C7.27598 16.25 7.26467 16.25 7.25336 16.25C7.24205 16.25 7.23074 16.25 7.21942 16.25C7.20811 16.25 7.19679 16.25 7.18546 16.25C7.17414 16.25 7.16281 16.25 7.15147 16.25C7.14014 16.25 7.1288 16.25 7.11746 16.25C7.10612 16.25 7.09478 16.25 7.08343 16.25C7.07208 16.25 7.06073 16.25 7.04937 16.25C7.03801 16.25 7.02666 16.25 7.01529 16.25C7.00393 16.25 6.99256 16.25 6.98119 16.25C6.96982 16.25 6.95845 16.25 6.94707 16.25C6.93569 16.25 6.92431 16.25 6.91293 16.25C6.90154 16.25 6.89015 16.25 6.87876 16.25C6.86737 16.25 6.85598 16.25 6.84458 16.25C6.83318 16.25 6.82178 16.25 6.81038 16.25C6.79897 16.25 6.78756 16.25 6.77615 16.25C6.76474 16.25 6.75333 16.25 6.74191 16.25C6.7305 16.25 6.71908 16.25 6.70766 16.25C6.69623 16.25 6.68481 16.25 6.67338 16.25C6.66195 16.25 6.65052 16.25 6.63909 16.25C6.62766 16.25 6.61622 16.25 6.60478 16.25C6.59334 16.25 6.5819 16.25 6.57046 16.25C6.55901 16.25 6.54757 16.25 6.53612 16.25C6.52467 16.25 6.51322 16.25 6.50176 16.25C6.49031 16.25 6.47885 16.25 6.46739 16.25C6.45593 16.25 6.44447 16.25 6.43301 16.25C6.42155 16.25 6.41008 16.25 6.39861 16.25C6.38714 16.25 6.37567 16.25 6.3642 16.25C6.35273 16.25 6.34126 16.25 6.32978 16.25C6.3183 16.25 6.30683 16.25 6.29535 16.25C6.28387 16.25 6.27238 16.25 6.2609 16.25C6.24942 16.25 6.23793 16.25 6.22644 16.25C6.21496 16.25 6.20347 16.25 6.19198 16.25C6.18048 16.25 6.16899 16.25 6.1575 16.25C6.146 16.25 6.13451 16.25 6.12301 16.25C6.11151 16.25 6.10002 16.25 6.08851 16.25C6.07701 16.25 6.06551 16.25 6.05401 16.25C6.04251 16.25 6.031 16.25 6.0195 16.25C6.00799 16.25 5.99648 16.25 5.98498 16.25C5.97347 16.25 5.96196 16.25 5.95045 16.25C5.93894 16.25 5.92743 16.25 5.91591 16.25C5.9044 16.25 5.89289 16.25 5.88137 16.25C5.86986 16.25 5.85834 16.25 5.84683 16.25C5.83531 16.25 5.82379 16.25 5.81228 16.25C5.80076 16.25 5.78924 16.25 5.77772 16.25C5.7662 16.25 5.75468 16.25 5.74316 16.25C5.73164 16.25 5.72012 16.25 5.70859 16.25C5.69707 16.25 5.68555 16.25 5.67403 16.25C5.6625 16.25 5.65098 16.25 5.63946 16.25C5.62793 16.25 5.61641 16.25 5.60488 16.25C5.59336 16.25 5.58184 16.25 5.57031 16.25C5.55879 16.25 5.54726 16.25 5.53573 16.25C5.52421 16.25 5.51268 16.25 5.50116 16.25C5.48963 16.25 5.47811 16.25 5.46658 16.25C5.45506 16.25 5.44353 16.25 5.432 16.25C5.42048 16.25 5.40895 16.25 5.39743 16.25C5.3859 16.25 5.37438 16.25 5.36285 16.25C5.35133 16.25 5.33981 16.25 5.32828 16.25C5.31676 16.25 5.30523 16.25 5.29371 16.25C5.28219 16.25 5.27066 16.25 5.25914 16.25C5.24762 16.25 5.2361 16.25 5.22458 16.25C5.21305 16.25 5.20153 16.25 5.19001 16.25C5.17849 16.25 5.16698 16.25 5.15546 16.25C5.14394 16.25 5.13242 16.25 5.1209 16.25C5.10939 16.25 5.09787 16.25 5.08635 16.25C5.07484 16.25 5.06333 16.25 5.05181 16.25C5.0403 16.25 5.02879 16.25 5.01728 16.25C5.00576 16.25 4.99425 16.25 4.98275 16.25C4.97124 16.25 4.95973 16.25 4.94822 16.25C4.93672 16.25 4.92521 16.25 4.91371 16.25C4.9022 16.25 4.8907 16.25 4.8792 16.25C4.8677 16.25 4.8562 16.25 4.8447 16.25C4.8332 16.25 4.8217 16.25 4.81021 16.25C4.79871 16.25 4.78722 16.25 4.77573 16.25C4.76424 16.25 4.75275 16.25 4.74126 16.25C4.72977 16.25 4.71828 16.25 4.7068 16.25C4.69531 16.25 4.68383 16.25 4.67235 16.25C4.66086 16.25 4.64938 16.25 4.63791 16.25C4.62643 16.25 4.61495 16.25 4.60348 16.25C4.59201 16.25 4.58054 16.25 4.56907 16.25C4.5576 16.25 4.54613 16.25 4.53466 16.25C4.5232 16.25 4.51174 16.25 4.50028 16.25C4.48882 16.25 4.47736 16.25 4.4659 16.25C4.45445 16.25 4.44299 16.25 4.43154 16.25C4.42009 16.25 4.40864 16.25 4.3972 16.25C4.38575 16.25 4.37431 16.25 4.36287 16.25C4.35143 16.25 4.33999 16.25 4.32855 16.25C4.31712 16.25 4.30568 16.25 4.29425 16.25C4.28282 16.25 4.2714 16.25 4.25997 16.25C4.24855 16.25 4.23713 16.25 4.22571 16.25C4.21429 16.25 4.20288 16.25 4.19146 16.25C4.18005 16.25 4.16864 16.25 4.15723 16.25C4.14583 16.25 4.13443 16.25 4.12303 16.25C4.11163 16.25 4.10023 16.25 4.08884 16.25C4.07744 16.25 4.06605 16.25 4.05466 16.25C4.04328 16.25 4.03189 16.25 4.02051 16.25C4.00913 16.25 3.99776 16.25 3.98638 16.25C3.97501 16.25 3.96364 16.25 3.95228 16.25C3.94091 16.25 3.92955 16.25 3.91819 16.25C3.90683 16.25 3.89547 16.25 3.88412 16.25C3.87277 16.25 3.86142 16.25 3.85008 16.25C3.83874 16.25 3.8274 16.25 3.81606 16.25C3.80472 16.25 3.79339 16.25 3.78206 16.25C3.77074 16.25 3.75941 16.25 3.74809 16.25C3.73677 16.25 3.72546 16.25 3.71415 16.25C3.70283 16.25 3.69153 16.25 3.68022 16.25C3.66892 16.25 3.65762 16.25 3.64633 16.25C3.63503 16.25 3.62374 16.25 3.61246 16.25C3.60117 16.25 3.58989 16.25 3.57861 16.25C3.56733 16.25 3.55606 16.25 3.54479 16.25C3.53353 16.25 3.52226 16.25 3.511 16.25C3.49974 16.25 3.48849 16.25 3.47724 16.25C3.46599 16.25 3.45475 16.25 3.44351 16.25C3.43227 16.25 3.42103 16.25 3.4098 16.25C3.39857 16.25 3.38735 16.25 3.37613 16.25C3.36491 16.25 3.35369 16.25 3.34248 16.25C3.33127 16.25 3.32007 16.25 3.30887 16.25C3.29767 16.25 3.28647 16.25 3.27528 16.25C3.26409 16.25 3.25291 16.25 3.24173 16.25C3.23055 16.25 3.21938 16.25 3.20821 16.25C3.19704 16.25 3.18588 16.25 3.17472 16.25C3.16356 16.25 3.15241 16.25 3.14126 16.25C3.13012 16.25 3.11898 16.25 3.10784 16.25C3.09671 16.25 3.08558 16.25 3.07445 16.25C3.06333 16.25 3.05221 16.25 3.0411 16.25C3.02999 16.25 3.01888 16.25 3.00778 16.25C2.99668 16.25 2.98558 16.25 2.97449 16.25C2.96341 16.25 2.95232 16.25 2.94125 16.25C2.93017 16.25 2.9191 16.25 2.90803 16.25C2.89697 16.25 2.88591 16.25 2.87486 16.25C2.8638 16.25 2.85276 16.25 2.84172 16.25C2.83068 16.25 2.81965 16.25 2.80862 16.25C2.79759 16.25 2.78657 16.25 2.77555 16.25C2.76454 16.25 2.75353 16.25 2.74253 16.25C2.73153 16.25 2.72053 16.25 2.70955 16.25C2.69856 16.25 2.68758 16.25 2.6766 16.25C2.66563 16.25 2.65466 16.25 2.6437 16.25C2.63273 16.25 2.62178 16.25 2.61083 16.25C2.59988 16.25 2.58894 16.25 2.57801 16.25C2.56707 16.25 2.55615 16.25 2.54523 16.25C2.5343 16.25 2.52339 16.25 2.51249 16.25C2.50158 16.25 2.49068 16.25 2.47979 16.25C2.4689 16.25 2.45801 16.25 2.44713 16.25C2.43626 16.25 2.42539 16.25 2.41452 16.25C2.40366 16.25 2.3928 16.25 2.38196 16.25C2.37111 16.25 2.36027 16.25 2.34943 16.25C2.3386 16.25 2.32778 16.25 2.31696 16.25C2.30614 16.25 2.29533 16.25 2.28453 16.25C2.27372 16.25 2.26293 16.25 2.25214 16.25C2.24135 16.25 2.23057 16.25 2.2198 16.25C2.20903 16.25 2.19826 16.25 2.18751 16.25C2.17675 16.25 2.166 16.25 2.15526 16.25C2.14452 16.25 2.13379 16.25 2.12307 16.25C2.11234 16.25 2.10163 16.25 2.09092 16.25C2.08021 16.25 2.06951 16.25 2.05882 16.25C2.04813 16.25 2.03744 16.25 2.02677 16.25C2.01609 16.25 2.00543 16.25 1.99477 16.25C1.98411 16.25 1.97346 16.25 1.96282 16.25C1.95218 16.25 1.94154 16.25 1.93092 16.25C1.92029 16.25 1.90968 16.25 1.89907 16.25C1.88846 16.25 1.87786 16.25 1.86727 16.25C1.85668 16.25 1.8461 16.25 1.83553 16.25C1.82496 16.25 1.81439 16.25 1.80384 16.25C1.79328 16.25 1.78274 16.25 1.7722 16.25C1.76166 16.25 1.75114 16.25 1.74062 16.25C1.7301 16.25 1.71959 16.25 1.70909 16.25C1.69859 16.25 1.68809 16.25 1.67761 16.25C1.66713 16.25 1.65666 16.25 1.64619 16.25C1.63573 16.25 1.62527 16.25 1.61483 16.25C1.60438 16.25 1.59395 16.25 1.58352 16.25C1.57309 16.25 1.56268 16.25 1.55227 16.25C1.54186 16.25 1.53146 16.25 1.52108 16.25C1.51069 16.25 1.50031 16.25 1.48994 16.25C1.47957 16.25 1.46921 16.25 1.45886 16.25C1.44851 16.25 1.43817 16.25 1.42784 16.25C1.41751 16.25 1.40719 16.25 1.39688 16.25C1.38657 16.25 1.37627 16.25 1.36598 16.25C1.35569 16.25 1.34541 16.25 1.33514 16.25C1.32487 16.25 1.31461 16.25 1.30436 16.25C1.29411 16.25 1.28387 16.25 1.27364 16.25C1.26341 16.25 1.25319 16.25 1.24298 16.25C1.23278 16.25 1.22258 16.25 1.21239 16.25C1.2022 16.25 1.19202 16.25 1.18186 16.25C1.17169 16.25 1.16153 16.25 1.15139 16.25C1.14124 16.25 1.1311 16.25 1.12098 16.25C1.11086 16.25 1.10074 16.25 1.09064 16.25C1.08053 16.25 1.07044 16.25 1.06036 16.25C1.05028 16.25 1.04021 16.25 1.03015 16.25C1.02009 16.25 1.01004 16.25 1 16.25V17.75Z" fill="currentColor" />
</svg>
