<svg width="19" height="18" viewBox="0 0 19 18" fill="none" xmlns="http://www.w3.org/2000/svg">
  <path fill-rule="evenodd" clip-rule="evenodd" d="M7.37337 3.68354C7.78758 3.68354 8.12337 3.34775 8.12337 2.93354C8.12337 2.51932 7.78758 2.18354 7.37337 2.18354L3.62663 2.18354C3.42646 2.18354 3.23459 2.26356 3.09374 2.40579C2.95288 2.54802 2.87473 2.74065 2.87667 2.94082L2.9127 6.65152C2.91672 7.06572 3.25575 7.39823 3.66994 7.39421C4.08414 7.39019 4.41665 7.05115 4.41263 6.63696L4.39443 4.76331L7.95907 8.32795C8.25196 8.62084 8.72683 8.62084 9.01973 8.32795C9.31262 8.03505 9.31262 7.56018 9.01973 7.26729L5.43598 3.68354L7.37337 3.68354Z" fill="currentColor" />
  <path fill-rule="evenodd" clip-rule="evenodd" d="M12.0485 13.7715C11.6343 13.7715 11.2985 14.1073 11.2985 14.5215C11.2985 14.9358 11.6343 15.2715 12.0485 15.2715L15.7952 15.2715C15.9954 15.2715 16.1873 15.1915 16.3281 15.0493C16.469 14.9071 16.5471 14.7144 16.5452 14.5143L16.5092 10.8036C16.5052 10.3894 16.1661 10.0569 15.7519 10.0609C15.3377 10.0649 15.0052 10.4039 15.0092 10.8181L15.0274 12.6912L11.4634 9.12721C11.1706 8.83432 10.6957 8.83432 10.4028 9.12721C10.1099 9.4201 10.1099 9.89498 10.4028 10.1879L13.9865 13.7715L12.0485 13.7715Z" fill="currentColor" />
</svg>
