<svg version="1.1" xmlns="http://www.w3.org/2000/svg" width="16" height="16" viewBox="0 0 16 16">
    <title>file</title>
    <path d="M4.72 3.597l-2.137 2.327c-0.078 0.085-0.122 0.197-0.122 0.312v8.225c0 0.425 0.344 0.769 0.769 0.769h9.538c0.425 0 0.769-0.344 0.769-0.769v-12.923c0-0.425-0.344-0.769-0.769-0.769h-5.298c-0.131 0-0.256 0.056-0.343 0.153l-2.408 2.675zM2.017 5.404l2.137-2.327 2.403-2.67c0.233-0.259 0.566-0.407 0.915-0.407h5.298c0.85 0 1.538 0.689 1.538 1.538v12.923c0 0.85-0.689 1.538-1.538 1.538h-9.538c-0.85 0-1.538-0.689-1.538-1.538v-8.225c0-0.308 0.116-0.605 0.324-0.833zM3.616 5.64c-0.212 0-0.384 0.172-0.385 0.384s0.172 0.385 0.385 0.385h2.504c0.85 0 1.538-0.689 1.538-1.538v-2.947c0-0.213-0.173-0.385-0.385-0.385s-0.384 0.172-0.384 0.385v2.947c0 0.425-0.344 0.769-0.769 0.769h-2.504z" fill="currentColor"></path>
</svg>
