<svg width="48" height="54" viewBox="0 0 48 54" fill="none" xmlns="http://www.w3.org/2000/svg">
    <path d="M7.25196 19.33L15.3901 19.33C16.7708 19.33 17.8901 18.2107 17.8901 16.83L17.8901 7.25192C17.8901 6.56232 18.4486 6.003 19.1382 6.00192C19.8293 6.00083 20.3901 6.5608 20.3901 7.25192L20.3901 16.83C20.3901 19.5914 18.1516 21.83 15.3901 21.83L7.25196 21.83C6.56089 21.83 6.00095 21.2692 6.00196 20.5781C6.00296 19.8885 6.56231 19.33 7.25196 19.33Z" fill="currentColor" />
    <path fill-rule="evenodd" clip-rule="evenodd" d="M2.05401 18.5627L9 11L16.8083 2.32414C17.5668 1.48129 18.6475 1 19.7815 1H42C44.7614 1 47 3.23858 47 6V48C47 50.7614 44.7614 53 42 53H6C3.23858 53 1 50.7614 1 48V21.2685C1 20.2664 1.37614 19.3008 2.05401 18.5627ZM10.8498 12.6818L18.6665 3.99655C18.951 3.68048 19.3562 3.5 19.7815 3.5H42C43.3807 3.5 44.5 4.61929 44.5 6V48C44.5 49.3807 43.3807 50.5 42 50.5H6C4.61929 50.5 3.5 49.3807 3.5 48V21.2685C3.5 20.8927 3.64105 20.5306 3.89525 20.2538L10.8498 12.6818Z" fill="currentColor" />
    <path fill-rule="evenodd" clip-rule="evenodd" d="M8 26.0549C8 25.4723 8.47231 25 9.05492 25H13.9779V25.0133C16.3383 25.1929 18.1976 27.165 18.1976 29.5713C18.1976 31.9777 16.3383 33.9498 13.9779 34.1294V34.1427H10.1098V38.714C10.1098 39.2966 9.63754 39.769 9.05492 39.769C8.47231 39.769 8 39.2966 8 38.714V26.0549ZM10.1098 27.1098H13.6263C14.9857 27.1098 16.0878 28.2119 16.0878 29.5713C16.0878 30.9308 14.9857 32.0328 13.6263 32.0328H10.1098V27.1098Z" fill="currentColor" />
    <path d="M38.945 27.1098H33.3691V31.0283H38.945C39.5276 31.0283 39.9999 31.5007 39.9999 32.0833C39.9999 32.6659 39.5276 33.1382 38.945 33.1382H33.3691V38.714C33.3691 39.2966 32.8968 39.769 32.3142 39.769C31.7316 39.769 31.2593 39.2966 31.2593 38.714V26.0549C31.2593 25.4723 31.7316 25 32.3142 25H38.945C39.5276 25 39.9999 25.4723 39.9999 26.0549C39.9999 26.6375 39.5276 27.1098 38.945 27.1098Z" fill="currentColor" />
    <path fill-rule="evenodd" clip-rule="evenodd" d="M20.9111 25C20.9279 25 20.9446 25.0004 20.9612 25.0012C20.9778 25.0004 20.9944 25 21.0112 25H23.724C23.9593 25 24.8543 25 25.2559 25.2073C27.8685 26.1303 29.789 29.2234 29.789 32.3922C29.789 35.576 28.2453 38.5638 25.218 39.5952L25.2165 39.59C25.0484 39.7033 23.942 39.7694 23.724 39.7694H21.0112C20.9928 39.7694 20.9745 39.7689 20.9564 39.768C20.9414 39.7686 20.9263 39.769 20.9111 39.769C20.3285 39.769 19.8562 39.2966 19.8562 38.714V26.0549C19.8562 25.4723 20.3285 25 20.9111 25ZM21.9661 37.6591V27.1098H23.114C24.0146 27.1098 24.9414 27.2377 25.6625 27.7771C27.0464 28.8124 27.8685 30.4939 27.8685 32.3922C27.8685 34.268 27.0441 35.932 25.6799 36.97C24.9497 37.5257 24.0053 37.6595 23.0878 37.6593L21.9661 37.6591Z" fill="currentColor" />
    <path d="M7.25196 19.33L15.3901 19.33C16.7708 19.33 17.8901 18.2107 17.8901 16.83L17.8901 7.25192C17.8901 6.56232 18.4486 6.003 19.1382 6.00192C19.8293 6.00083 20.3901 6.5608 20.3901 7.25192L20.3901 16.83C20.3901 19.5914 18.1516 21.83 15.3901 21.83L7.25196 21.83C6.56089 21.83 6.00095 21.2692 6.00196 20.5781C6.00296 19.8885 6.56231 19.33 7.25196 19.33Z" stroke="currentColor" stroke-width="0.5" />
    <path fill-rule="evenodd" clip-rule="evenodd" d="M2.05401 18.5627L9 11L16.8083 2.32414C17.5668 1.48129 18.6475 1 19.7815 1H42C44.7614 1 47 3.23858 47 6V48C47 50.7614 44.7614 53 42 53H6C3.23858 53 1 50.7614 1 48V21.2685C1 20.2664 1.37614 19.3008 2.05401 18.5627ZM10.8498 12.6818L18.6665 3.99655C18.951 3.68048 19.3562 3.5 19.7815 3.5H42C43.3807 3.5 44.5 4.61929 44.5 6V48C44.5 49.3807 43.3807 50.5 42 50.5H6C4.61929 50.5 3.5 49.3807 3.5 48V21.2685C3.5 20.8927 3.64105 20.5306 3.89525 20.2538L10.8498 12.6818Z" stroke="currentColor" stroke-width="0.5" />
    <path fill-rule="evenodd" clip-rule="evenodd" d="M8 26.0549C8 25.4723 8.47231 25 9.05492 25H13.9779V25.0133C16.3383 25.1929 18.1976 27.165 18.1976 29.5713C18.1976 31.9777 16.3383 33.9498 13.9779 34.1294V34.1427H10.1098V38.714C10.1098 39.2966 9.63754 39.769 9.05492 39.769C8.47231 39.769 8 39.2966 8 38.714V26.0549ZM10.1098 27.1098H13.6263C14.9857 27.1098 16.0878 28.2119 16.0878 29.5713C16.0878 30.9308 14.9857 32.0328 13.6263 32.0328H10.1098V27.1098Z" stroke="currentColor" stroke-width="0.5" />
    <path d="M38.945 27.1098H33.3691V31.0283H38.945C39.5276 31.0283 39.9999 31.5007 39.9999 32.0833C39.9999 32.6659 39.5276 33.1382 38.945 33.1382H33.3691V38.714C33.3691 39.2966 32.8968 39.769 32.3142 39.769C31.7316 39.769 31.2593 39.2966 31.2593 38.714V26.0549C31.2593 25.4723 31.7316 25 32.3142 25H38.945C39.5276 25 39.9999 25.4723 39.9999 26.0549C39.9999 26.6375 39.5276 27.1098 38.945 27.1098Z" stroke="currentColor" stroke-width="0.5" />
    <path fill-rule="evenodd" clip-rule="evenodd" d="M20.9111 25C20.9279 25 20.9446 25.0004 20.9612 25.0012C20.9778 25.0004 20.9944 25 21.0112 25H23.724C23.9593 25 24.8543 25 25.2559 25.2073C27.8685 26.1303 29.789 29.2234 29.789 32.3922C29.789 35.576 28.2453 38.5638 25.218 39.5952L25.2165 39.59C25.0484 39.7033 23.942 39.7694 23.724 39.7694H21.0112C20.9928 39.7694 20.9745 39.7689 20.9564 39.768C20.9414 39.7686 20.9263 39.769 20.9111 39.769C20.3285 39.769 19.8562 39.2966 19.8562 38.714V26.0549C19.8562 25.4723 20.3285 25 20.9111 25ZM21.9661 37.6591V27.1098H23.114C24.0146 27.1098 24.9414 27.2377 25.6625 27.7771C27.0464 28.8124 27.8685 30.4939 27.8685 32.3922C27.8685 34.268 27.0441 35.932 25.6799 36.97C24.9497 37.5257 24.0053 37.6595 23.0878 37.6593L21.9661 37.6591Z" stroke="currentColor" stroke-width="0.5" />
</svg>
