<svg width="22" height="23" viewBox="0 0 22 23" fill="none" xmlns="http://www.w3.org/2000/svg">
  <path fill-rule="evenodd" clip-rule="evenodd" d="M11.75 0.5C11.75 0.223858 11.5261 0 11.25 0C10.9739 0 10.75 0.223858 10.75 0.5V2C10.75 2.27614 10.9739 2.5 11.25 2.5C11.5261 2.5 11.75 2.27614 11.75 2V0.5ZM6.66603 1.22265C6.51285 0.992886 6.20241 0.930799 5.97265 1.08397C5.74289 1.23715 5.6808 1.54759 5.83397 1.77735L6.83397 3.27735C6.98715 3.50711 7.29759 3.5692 7.52735 3.41603C7.75711 3.26285 7.8192 2.95241 7.66603 2.72265L6.66603 1.22265ZM16.666 1.77735C16.8192 1.54759 16.7571 1.23715 16.5274 1.08397C16.2976 0.930799 15.9872 0.992886 15.834 1.22265L14.834 2.72265C14.6808 2.95241 14.7429 3.26285 14.9726 3.41603C15.2024 3.5692 15.5128 3.50711 15.666 3.27735L16.666 1.77735ZM2.02735 5.08397C1.79759 4.9308 1.48715 4.99289 1.33397 5.22265C1.1808 5.45241 1.24289 5.76285 1.47265 5.91603L2.97265 6.91603C3.20241 7.0692 3.51285 7.00711 3.66603 6.77735C3.8192 6.54759 3.75711 6.23715 3.52735 6.08397L2.02735 5.08397ZM20.5273 5.91603C20.7571 5.76285 20.8192 5.45241 20.666 5.22265C20.5128 4.99289 20.2024 4.9308 19.9727 5.08397L18.4727 6.08397C18.2429 6.23715 18.1808 6.54759 18.334 6.77735C18.4872 7.00711 18.7976 7.0692 19.0273 6.91603L20.5273 5.91603ZM0.75 10.5C0.473858 10.5 0.25 10.7239 0.25 11C0.25 11.2761 0.473858 11.5 0.75 11.5H2.25C2.52614 11.5 2.75 11.2761 2.75 11C2.75 10.7239 2.52614 10.5 2.25 10.5H0.75ZM19.75 10.5C19.4739 10.5 19.25 10.7239 19.25 11C19.25 11.2761 19.4739 11.5 19.75 11.5H21.25C21.5261 11.5 21.75 11.2761 21.75 11C21.75 10.7239 21.5261 10.5 21.25 10.5H19.75ZM6.13814 7.6544C5.40229 9.18274 5.50265 11.1531 6.20974 12.8031C6.82119 14.2299 7.33271 14.8588 7.74628 15.3673C7.81969 15.4576 7.89002 15.5441 7.95727 15.6305C8.19593 15.9374 8.40676 16.2578 8.54853 16.7208C8.68642 17.1712 8.75016 17.7271 8.75019 18.5C8.7502 18.6733 8.75028 18.8399 8.75084 19H13.7496C13.7502 18.8399 13.7502 18.6733 13.7502 18.5C13.7502 17.7271 13.8139 17.1712 13.9518 16.7208C14.0935 16.2578 14.3043 15.9374 14.543 15.6305C14.6103 15.544 14.6806 15.4575 14.7541 15.3672C15.1648 14.8622 15.6721 14.2384 16.2781 12.8323C16.7533 11.1493 16.8485 9.17073 16.1685 7.64055C15.831 6.88119 15.3028 6.2303 14.525 5.76502C13.744 5.29784 12.6813 5 11.2503 5C8.4089 5 6.85376 6.16809 6.13814 7.6544ZM8.92014 21.3059C8.82831 20.9693 8.78608 20.537 8.76667 20H13.7338C13.7144 20.537 13.6722 20.9693 13.5804 21.3059C13.5013 21.5959 13.3994 21.7555 13.2932 21.8459C13.1948 21.9298 13.039 22 12.7502 22H9.75023C9.46149 22 9.30573 21.9298 9.2073 21.8459C9.10111 21.7555 8.99921 21.5959 8.92014 21.3059ZM5.23714 7.2206C6.14648 5.33191 8.09136 4 11.2503 4C12.8195 4 14.0693 4.32716 15.0384 4.90685C16.0106 5.48845 16.6698 6.30631 17.0823 7.23445C17.898 9.07006 17.7483 11.3269 17.231 13.1374L17.2223 13.1678L17.2098 13.197C16.5423 14.7543 15.9564 15.4741 15.5326 15.9949C15.4611 16.0827 15.3942 16.1649 15.3324 16.2445C15.1335 16.5001 15.0006 16.711 14.908 17.0135C14.8115 17.3288 14.7502 17.7729 14.7502 18.5L14.7502 18.5731C14.7503 19.7619 14.7504 20.8164 14.5451 21.5691C14.4367 21.9667 14.2573 22.3383 13.9417 22.6072C13.6182 22.8827 13.2115 23 12.7502 23H9.75023C9.28899 23 8.88227 22.8827 8.55883 22.6072C8.24316 22.3383 8.06381 21.9667 7.95537 21.5691C7.7501 20.8164 7.75014 19.762 7.75019 18.5733L7.75019 18.5C7.75016 17.7729 7.68886 17.3288 7.59234 17.0136C7.4997 16.711 7.36676 16.5001 7.16792 16.2445C7.10607 16.165 7.03923 16.0828 6.9678 15.9951C6.54389 15.4742 5.95802 14.7544 5.29058 13.1969C4.49777 11.3469 4.34803 9.06726 5.23714 7.2206Z" fill="currentColor" />
</svg>
