<svg version="1.1" xmlns="http://www.w3.org/2000/svg" width="16" height="16" viewBox="0 0 16 16">
  <title>link</title>
  <path stroke-linejoin="round" stroke-linecap="butt" stroke-miterlimit="4" stroke-width="0.2222" stroke="currentColor" fill="currentColor" d="M14.243 6.824l-3.148 3.148c-0.396 0.398-0.944 0.644-1.55 0.644-1.208 0-2.187-0.979-2.187-2.187 0-0.488 0.16-0.938 0.429-1.302l-0.004 0.006c0.134-0.182 0.143-0.45-0.028-0.62-0.168-0.168-0.451-0.176-0.606 0.021-0.408 0.515-0.655 1.174-0.655 1.891 0 1.687 1.368 3.055 3.055 3.055 0.844 0 1.607-0.342 2.16-0.895l3.148-3.148c0.553-0.553 0.895-1.316 0.895-2.16 0-1.687-1.368-3.055-3.055-3.055-0.844 0-1.607 0.342-2.16 0.895l-1.5 1.5c-0.073 0.078-0.118 0.182-0.118 0.298 0 0.239 0.194 0.434 0.434 0.434 0.115 0 0.22-0.045 0.297-0.118l-0 0 1.501-1.5c0.396-0.396 0.943-0.641 1.547-0.641 1.208 0 2.188 0.979 2.188 2.188 0 0.604-0.245 1.151-0.641 1.547v0zM6.967 10.766c-0.078-0.078-0.187-0.127-0.307-0.127s-0.228 0.049-0.307 0.127l-1.503 1.503c-0.396 0.396-0.943 0.641-1.547 0.641-1.208 0-2.188-0.98-2.188-2.188 0-0.604 0.245-1.151 0.641-1.547v0l3.149-3.148c0.396-0.396 0.943-0.641 1.547-0.641s1.151 0.245 1.547 0.641l0 0c0.438 0.438 0.751 0.903 0.848 1.359 0.096 0.449-0.013 0.898-0.437 1.322l-0.203 0.203c-0.084 0.079-0.136 0.191-0.136 0.316 0 0.239 0.194 0.434 0.434 0.434 0.124 0 0.236-0.052 0.315-0.136l0-0 0.060-0.060s0 0 0 0c0.598-0.597 0.83-1.315 0.76-2.034-0.069-0.716-0.438-1.426-1.029-2.017-0.553-0.553-1.316-0.895-2.16-0.895s-1.607 0.342-2.16 0.895l-3.148 3.148c-0.553 0.553-0.895 1.316-0.895 2.16 0 1.687 1.368 3.055 3.055 3.055 0.844 0 1.607-0.342 2.16-0.895l1.503-1.503c0.078-0.078 0.127-0.187 0.127-0.307s-0.049-0.228-0.127-0.307v0z"></path>
</svg>
