<svg width="19" height="18" viewBox="0 0 19 18" fill="none" xmlns="http://www.w3.org/2000/svg">
  <path d="M16.8101 6V6.625H16.8101L16.8101 6ZM16.8101 15L17.403 15.1976C17.4092 15.1789 17.4146 15.1598 17.4191 15.1405L16.8101 15ZM4.81006 17L4.81006 17.625H4.81006V17ZM2.31006 15L2.92757 14.9035C2.92526 14.8887 2.92242 14.874 2.91905 14.8595L2.31006 15ZM2.31006 2.875C1.96488 2.875 1.68506 3.15482 1.68506 3.5C1.68506 3.84518 1.96488 4.125 2.31006 4.125V2.875ZM16.8101 4.125C17.1552 4.125 17.4351 3.84518 17.4351 3.5C17.4351 3.15482 17.1552 2.875 16.8101 2.875V4.125ZM3.31006 0.375C2.96488 0.375 2.68506 0.654822 2.68506 1C2.68506 1.34518 2.96488 1.625 3.31006 1.625V0.375ZM15.8101 1.625C16.1552 1.625 16.4351 1.34518 16.4351 1C16.4351 0.654822 16.1552 0.375 15.8101 0.375V1.625ZM2.31006 6.625H16.8101V5.375H2.31006V6.625ZM16.8101 6.625C17.2137 6.62499 17.4016 6.72548 17.4931 6.81693C17.5845 6.90838 17.685 7.09633 17.685 7.49999H18.935C18.935 6.90365 18.7855 6.3416 18.377 5.93305C17.9684 5.5245 17.4064 5.37499 16.8101 5.375L16.8101 6.625ZM17.685 7.49999C17.685 7.67854 17.6062 8.20633 17.4614 8.97855C17.3222 9.72078 17.136 10.621 16.9489 11.494C16.762 12.3663 16.575 13.2078 16.4347 13.8316C16.3645 14.1433 16.3061 14.4005 16.2652 14.5797C16.2447 14.6692 16.2287 14.7393 16.2178 14.7869C16.2123 14.8107 16.2081 14.8289 16.2053 14.8411C16.2039 14.8472 16.2028 14.8518 16.2021 14.8549C16.2018 14.8565 16.2015 14.8576 16.2013 14.8584C16.2012 14.8587 16.2012 14.859 16.2011 14.8592C16.2011 14.8593 16.2011 14.8594 16.2011 14.8594C16.2011 14.8595 16.2011 14.8595 16.8101 15C17.4191 15.1405 17.4191 15.1405 17.4191 15.1404C17.4191 15.1404 17.4191 15.1403 17.4191 15.1402C17.4192 15.14 17.4193 15.1397 17.4193 15.1393C17.4195 15.1385 17.4198 15.1372 17.4202 15.1357C17.4209 15.1325 17.422 15.1277 17.4234 15.1215C17.4263 15.1091 17.4305 15.0907 17.4361 15.0666C17.4471 15.0185 17.4633 14.9479 17.4838 14.8578C17.525 14.6776 17.5837 14.4192 17.6542 14.1059C17.7951 13.4797 17.9831 12.6337 18.1712 11.7559C18.3591 10.879 18.5479 9.96669 18.69 9.20891C18.8264 8.48113 18.935 7.82142 18.935 7.49999H17.685ZM16.2171 14.8024C16.1173 15.1018 16.0272 15.4664 15.7618 15.7943C15.5291 16.0817 15.126 16.375 14.3101 16.375V17.625C15.4941 17.625 16.2577 17.1683 16.7333 16.5807C17.1763 16.0336 17.3361 15.3982 17.403 15.1976L16.2171 14.8024ZM14.3101 16.375H4.81006V17.625H14.3101V16.375ZM4.81006 16.375C3.94613 16.375 3.50155 15.9968 3.25101 15.6405C3.11802 15.4514 3.03471 15.2587 2.98506 15.1121C2.96054 15.0397 2.94511 14.981 2.93627 14.9433C2.93187 14.9245 2.92916 14.9112 2.92781 14.9042C2.92714 14.9007 2.92681 14.8988 2.92678 14.8987C2.92677 14.8986 2.92683 14.8989 2.92696 14.8997C2.92703 14.9001 2.92711 14.9007 2.92721 14.9013C2.92726 14.9016 2.92732 14.9019 2.92738 14.9023C2.92741 14.9025 2.92745 14.9028 2.92747 14.9029C2.92752 14.9032 2.92757 14.9035 2.31006 15C1.69255 15.0965 1.6926 15.0968 1.69266 15.0972C1.69268 15.0973 1.69273 15.0976 1.69277 15.0979C1.69285 15.0984 1.69293 15.0989 1.69302 15.0994C1.6932 15.1006 1.6934 15.1018 1.69362 15.1032C1.69407 15.1059 1.69462 15.1091 1.69526 15.1128C1.69655 15.1202 1.69824 15.1296 1.70039 15.1407C1.70469 15.163 1.71083 15.1926 1.71925 15.2286C1.73604 15.3002 1.76212 15.3978 1.80107 15.5129C1.87838 15.7413 2.00991 16.0486 2.22848 16.3595C2.68107 17.0032 3.48649 17.625 4.81006 17.625L4.81006 16.375ZM2.31006 15C2.91905 14.8595 2.91905 14.8594 2.91904 14.8594C2.91903 14.8594 2.91902 14.8593 2.91899 14.8592C2.91895 14.859 2.91889 14.8587 2.9188 14.8584C2.91862 14.8576 2.91836 14.8564 2.918 14.8549C2.9173 14.8518 2.91623 14.8472 2.91483 14.8411C2.91201 14.8289 2.90783 14.8107 2.90236 14.7869C2.89143 14.7393 2.87538 14.6692 2.85493 14.5797C2.81404 14.4005 2.75559 14.1433 2.68544 13.8316C2.5451 13.2078 2.35809 12.3663 2.17119 11.494C1.98411 10.621 1.7979 9.7208 1.65873 8.97857C1.51394 8.20635 1.43506 7.67856 1.43506 7.5H0.185059C0.185059 7.82144 0.29368 8.48115 0.430138 9.20893C0.572221 9.9667 0.761012 10.879 0.948932 11.756C1.13702 12.6337 1.32502 13.4797 1.46593 14.1059C1.5364 14.4192 1.59514 14.6776 1.63628 14.8578C1.65685 14.948 1.67302 15.0185 1.68406 15.0666C1.68958 15.0907 1.69382 15.1091 1.69668 15.1215C1.69812 15.1278 1.69921 15.1325 1.69994 15.1357C1.70031 15.1373 1.70058 15.1385 1.70077 15.1393C1.70087 15.1397 1.70094 15.14 1.70099 15.1402C1.70101 15.1403 1.70103 15.1404 1.70104 15.1404C1.70106 15.1405 1.70106 15.1405 2.31006 15ZM1.43506 7.5C1.43506 7.09634 1.53555 6.90839 1.627 6.81694C1.71845 6.72549 1.9064 6.625 2.31006 6.625V5.375C1.71372 5.375 1.15167 5.52451 0.743117 5.93306C0.334567 6.34161 0.185059 6.90366 0.185059 7.5H1.43506ZM2.31006 4.125H16.8101V2.875H2.31006V4.125ZM3.31006 1.625H15.8101V0.375H3.31006V1.625Z" fill="#F77B78" />
  <path d="M9.7755 13.2632C9.53142 13.5073 9.53142 13.903 9.7755 14.1471C10.0196 14.3912 10.4153 14.3912 10.6594 14.1471L12.8628 11.9438C12.9807 11.8258 13.0466 11.6656 13.0458 11.4988C13.045 11.332 12.9775 11.1724 12.8584 11.0556L10.6551 8.89461C10.4086 8.65291 10.0129 8.65675 9.77123 8.90319C9.52953 9.14963 9.53338 9.54533 9.77981 9.78703L10.8909 10.8767L6.7002 10.8767C6.35502 10.8767 6.0752 11.1566 6.0752 11.5017C6.0752 11.8469 6.35502 12.1267 6.7002 12.1267L10.912 12.1267L9.7755 13.2632Z" fill="#F77B78" />
</svg>
