<svg version="1.1" xmlns="http://www.w3.org/2000/svg" width="16" height="16" viewBox="0 0 16 16">
  <title>network</title>
  <path fill="currentColor" d="M4.618 10.958l0.128-0.486-0.012-0.003-0.012-0.003-0.104 0.492zM2.632 7.751l0.486 0.128 0.003-0.012 0.003-0.012-0.492-0.104zM5.839 5.765l-0.128 0.486 0.012 0.003 0.012 0.003 0.104-0.492zM0.525 13.325c0 0.278 0.225 0.503 0.503 0.503s0.503-0.225 0.503-0.503h-1.006zM7.827 9.633c-0.236-0.147-0.546-0.076-0.693 0.16s-0.076 0.546 0.16 0.693l0.533-0.853zM8.836 13.365c0 0.278 0.225 0.503 0.503 0.503s0.503-0.225 0.503-0.503h-1.006zM13.322 8.878l0.49 0.113 0.002-0.008-0.492-0.105zM11.871 6.587l-0.113 0.49 0.008 0.002 0.105-0.492zM13.22 9.252c-0.238-0.143-0.547-0.066-0.69 0.172s-0.066 0.547 0.173 0.69l0.518-0.863zM14.472 12.502c0.031 0.276 0.279 0.475 0.555 0.444s0.475-0.279 0.444-0.555l-1 0.111zM10.003 9.683v0zM12.897 9.691v0zM9.168 2.635c0-0.278-0.225-0.503-0.503-0.503s-0.503 0.225-0.503 0.503h1.006zM8.162 4.926c0 0.278 0.225 0.503 0.503 0.503s0.503-0.225 0.503-0.503h-1.006zM7.519 3.277c-0.278 0-0.503 0.225-0.503 0.503s0.225 0.503 0.503 0.503v-1.006zM9.81 4.283c0.278 0 0.503-0.225 0.503-0.503s-0.225-0.503-0.503-0.503v1.006zM7.333 8.869c-0.247 1.173-1.418 1.91-2.587 1.603l-0.256 0.973c1.733 0.456 3.464-0.64 3.827-2.368l-0.984-0.207zM4.721 10.466c-1.173-0.247-1.91-1.418-1.603-2.587l-0.973-0.256c-0.456 1.733 0.64 3.464 2.368 3.827l0.207-0.984zM3.124 7.855c0.247-1.173 1.418-1.91 2.587-1.603l0.256-0.973c-1.733-0.456-3.464 0.64-3.828 2.368l0.984 0.207zM5.736 6.258c1.149 0.242 1.852 1.402 1.597 2.611l0.984 0.207c0.356-1.692-0.621-3.434-2.374-3.803l-0.207 0.984zM2.794 9.494c-0.742 0.412-1.32 0.915-1.708 1.562s-0.561 1.4-0.561 2.269h1.006c0-0.734 0.145-1.296 0.418-1.752s0.701-0.848 1.333-1.2l-0.489-0.879zM7.294 10.486c0.868 0.543 1.542 1.517 1.542 2.879h1.006c0-1.733-0.873-3.019-2.015-3.732l-0.533 0.853zM12.832 8.764c-0.168 0.73-0.973 1.239-1.688 1.074l-0.226 0.98c1.271 0.293 2.604-0.572 2.894-1.828l-0.98-0.226zM11.144 9.838c-0.73-0.168-1.239-0.973-1.074-1.688l-0.98-0.226c-0.293 1.271 0.572 2.604 1.828 2.894l0.226-0.98zM10.070 8.151c0.168-0.73 0.973-1.239 1.688-1.074l0.226-0.98c-1.271-0.293-2.604 0.572-2.894 1.828l0.98 0.226zM11.766 7.079c0.785 0.168 1.238 0.883 1.065 1.694l0.984 0.211c0.285-1.328-0.484-2.598-1.837-2.888l-0.211 0.984zM12.703 10.114c1.16 0.696 1.665 1.453 1.769 2.388l1-0.111c-0.147-1.326-0.898-2.328-2.251-3.139l-0.518 0.863zM11.144 9.838c-0.291-0.067-0.555-0.238-0.755-0.478l-0.773 0.644c0.325 0.39 0.775 0.692 1.301 0.814l0.226-0.98zM10.39 9.361c-0.289-0.346-0.414-0.799-0.319-1.21l-0.98-0.226c-0.175 0.757 0.065 1.526 0.527 2.080l0.773-0.644zM9.854 9.202c-0.359 0.111-1.131 0.507-1.796 1.284l0.764 0.655c0.54-0.63 1.15-0.921 1.331-0.977l-0.298-0.961zM12.832 8.764c-0.050 0.218-0.159 0.421-0.311 0.593l0.754 0.667c0.254-0.288 0.447-0.639 0.538-1.034l-0.98-0.226zM12.52 9.358c-0.351 0.396-0.892 0.592-1.376 0.481l-0.226 0.98c0.889 0.205 1.794-0.158 2.356-0.794l-0.754-0.667zM8.162 2.635v2.291h1.006v-2.291h-1.006zM7.519 4.283h2.291v-1.006h-2.291v1.006z"></path>
</svg>
