<svg version="1.1" xmlns="http://www.w3.org/2000/svg" width="15" height="16" viewBox="0 0 15 16">
    <path fill="currentColor" d="M11.554 4.445c1.227 0 2.222 0.995 2.222 2.222v5.333c0 1.227-0.995 2.222-2.222 2.222h-5.333c-1.227 0-2.222-0.995-2.222-2.222v-5.333c0-1.227 0.995-2.222 2.222-2.222h5.333zM6.222 3.112c-1.963 0-3.555 1.592-3.555 3.555v5.333c0 1.964 1.592 3.555 3.555 3.555h5.333c1.963 0 3.555-1.592 3.555-3.555v-5.333c0-1.963-1.592-3.555-3.555-3.555h-5.333z"></path>
    <path fill="currentColor" d="M7.398 9.279c0.251-0.222 0.628-0.224 0.88-0.004l1.434 1.251 0.647-0.569c0.258-0.227 0.646-0.221 0.897 0.014l1.644 1.543c0.268 0.252 0.282 0.674 0.030 0.942s-0.674 0.282-0.942 0.030l-1.202-1.128-0.059 0.052 0.1 0.088c0.277 0.242 0.306 0.663 0.064 0.941s-0.663 0.306-0.94 0.064l-2.107-1.837-2.069 1.833c-0.276 0.244-0.697 0.219-0.941-0.057s-0.219-0.697 0.057-0.941l2.507-2.222z"></path>
    <path fill="currentColor"  d="M11.11 8.444c0.736 0 1.333-0.597 1.333-1.333s-0.597-1.333-1.333-1.333c-0.736 0-1.333 0.597-1.333 1.333s0.597 1.333 1.333 1.333z"></path>
    <path fill="currentColor"  d="M3.555 1.778h5.333c0.911 0 1.694 0.548 2.037 1.333h0.629c0.275 0 0.542 0.031 0.799 0.090-0.362-1.579-1.776-2.756-3.465-2.756h-5.333c-1.963 0-3.555 1.592-3.555 3.555v5.333c0 1.689 1.178 3.103 2.756 3.465-0.059-0.257-0.090-0.524-0.090-0.799v-0.629c-0.785-0.343-1.333-1.126-1.333-2.037v-5.333c0-1.227 0.995-2.222 2.222-2.222z"></path>
</svg>
