<svg width="18" height="18" viewBox="0 0 20 18" fill="none" xmlns="http://www.w3.org/2000/svg">
  <path d="M17 5.72021V6.34521H17L17 5.72021ZM17 14.7202L17.5929 14.9179C17.5992 14.8991 17.6045 14.88 17.609 14.8607L17 14.7202ZM5 16.7202L5 17.3452H5V16.7202ZM2.5 14.7202L3.11751 14.6237C3.1152 14.6089 3.11236 14.5943 3.10899 14.5797L2.5 14.7202ZM3.5 2.59521C3.15482 2.59521 2.875 2.87504 2.875 3.22021C2.875 3.56539 3.15482 3.84521 3.5 3.84521V2.59521ZM16 3.84521C16.3452 3.84521 16.625 3.56539 16.625 3.22021C16.625 2.87504 16.3452 2.59521 16 2.59521V3.84521ZM4.5 0.0952148C4.15482 0.0952148 3.875 0.375037 3.875 0.720215C3.875 1.06539 4.15482 1.34521 4.5 1.34521V0.0952148ZM15 1.34521C15.3452 1.34521 15.625 1.06539 15.625 0.720215C15.625 0.375037 15.3452 0.0952148 15 0.0952148V1.34521ZM11.5581 13.4903C11.8023 13.7344 12.198 13.7343 12.442 13.4902C12.686 13.246 12.6859 12.8503 12.4418 12.6063L11.5581 13.4903ZM8.44186 8.60766C8.19776 8.36361 7.80203 8.36366 7.55798 8.60776C7.31393 8.85187 7.31397 9.2476 7.55808 9.49165L8.44186 8.60766ZM7.55803 12.6064C7.31395 12.8504 7.31395 13.2462 7.55803 13.4902C7.80211 13.7343 8.19784 13.7343 8.44191 13.4902L7.55803 12.6064ZM12.4419 9.49024C12.686 9.24616 12.686 8.85043 12.4419 8.60636C12.1978 8.36228 11.8021 8.36228 11.558 8.60636L12.4419 9.49024ZM2.5 6.34521H17V5.09521H2.5V6.34521ZM17 6.34521C17.4036 6.34521 17.5916 6.4457 17.683 6.53715C17.7745 6.6286 17.875 6.81655 17.875 7.2202H19.125C19.125 6.62387 18.9755 6.06182 18.5669 5.65327C18.1584 5.24472 17.5963 5.09521 17 5.09521L17 6.34521ZM17.875 7.2202C17.875 7.39876 17.7961 7.92655 17.6513 8.69877C17.5121 9.441 17.3259 10.3412 17.1389 11.2142C16.952 12.0865 16.765 12.928 16.6246 13.5518C16.5545 13.8636 16.496 14.1207 16.4551 14.2999C16.4347 14.3895 16.4186 14.4595 16.4077 14.5071C16.4022 14.5309 16.398 14.5491 16.3952 14.5613C16.3938 14.5674 16.3928 14.5721 16.3921 14.5751C16.3917 14.5767 16.3914 14.5778 16.3913 14.5786C16.3912 14.579 16.3911 14.5792 16.3911 14.5794C16.391 14.5795 16.391 14.5796 16.391 14.5796C16.391 14.5797 16.391 14.5797 17 14.7202C17.609 14.8607 17.609 14.8607 17.609 14.8607C17.609 14.8606 17.609 14.8605 17.6091 14.8604C17.6091 14.8602 17.6092 14.8599 17.6093 14.8595C17.6095 14.8587 17.6098 14.8575 17.6101 14.8559C17.6109 14.8527 17.6119 14.848 17.6134 14.8417C17.6162 14.8293 17.6205 14.8109 17.626 14.7868C17.637 14.7387 17.6532 14.6682 17.6738 14.578C17.7149 14.3978 17.7737 14.1394 17.8441 13.8262C17.985 13.1999 18.173 12.3539 18.3611 11.4762C18.549 10.5992 18.7378 9.6869 18.8799 8.92913C19.0164 8.20135 19.125 7.54164 19.125 7.2202H17.875ZM16.4071 14.5226C16.3073 14.822 16.2171 15.1866 15.9517 15.5145C15.7191 15.8019 15.3159 16.0952 14.5 16.0952V17.3452C15.6841 17.3452 16.4476 16.8885 16.9233 16.301C17.3662 15.7538 17.5261 15.1185 17.5929 14.9179L16.4071 14.5226ZM14.5 16.0952H5V17.3452H14.5V16.0952ZM5 16.0952C4.13607 16.0952 3.69149 15.717 3.44096 15.3607C3.30796 15.1716 3.22465 14.9789 3.175 14.8323C3.15048 14.7599 3.13505 14.7013 3.12621 14.6635C3.12181 14.6448 3.1191 14.6314 3.11775 14.6244C3.11708 14.6209 3.11675 14.619 3.11672 14.6189C3.11671 14.6188 3.11677 14.6192 3.1169 14.62C3.11697 14.6204 3.11705 14.6209 3.11715 14.6215C3.11721 14.6218 3.11726 14.6222 3.11732 14.6225C3.11735 14.6227 3.1174 14.623 3.11741 14.6231C3.11746 14.6234 3.11751 14.6237 2.5 14.7202C1.88249 14.8167 1.88254 14.817 1.8826 14.8174C1.88262 14.8175 1.88267 14.8178 1.88271 14.8181C1.88279 14.8186 1.88287 14.8191 1.88296 14.8197C1.88314 14.8208 1.88334 14.822 1.88357 14.8234C1.88402 14.8261 1.88456 14.8293 1.8852 14.833C1.88649 14.8404 1.88819 14.8498 1.89034 14.8609C1.89463 14.8832 1.90077 14.9129 1.90919 14.9488C1.92598 15.0204 1.95206 15.1181 1.99101 15.2331C2.06832 15.4615 2.19985 15.7689 2.41842 16.0797C2.87101 16.7234 3.67643 17.3452 5 17.3452L5 16.0952ZM2.5 14.7202C3.10899 14.5797 3.10899 14.5797 3.10898 14.5796C3.10897 14.5796 3.10896 14.5795 3.10894 14.5794C3.10889 14.5792 3.10883 14.579 3.10874 14.5786C3.10856 14.5778 3.1083 14.5767 3.10794 14.5751C3.10724 14.5721 3.10617 14.5674 3.10477 14.5613C3.10196 14.5491 3.09777 14.5309 3.09231 14.5071C3.08137 14.4595 3.06532 14.3895 3.04487 14.2999C3.00398 14.1207 2.94553 13.8636 2.87538 13.5518C2.73504 12.928 2.54804 12.0865 2.36113 11.2143C2.17405 10.3412 1.98784 9.44101 1.84867 8.69878C1.70388 7.92656 1.625 7.39877 1.625 7.22021H0.375C0.375 7.54166 0.483621 8.20136 0.62008 8.92914C0.762162 9.68692 0.950953 10.5992 1.13887 11.4762C1.32696 12.3539 1.51496 13.1999 1.65587 13.8262C1.72634 14.1394 1.78508 14.3978 1.82622 14.5781C1.84679 14.6682 1.86296 14.7387 1.874 14.7868C1.87952 14.8109 1.88376 14.8293 1.88663 14.8417C1.88806 14.848 1.88915 14.8527 1.88988 14.8559C1.89025 14.8575 1.89053 14.8587 1.89071 14.8595C1.89081 14.8599 1.89088 14.8602 1.89093 14.8604C1.89095 14.8605 1.89097 14.8606 1.89098 14.8607C1.891 14.8607 1.89101 14.8608 2.5 14.7202ZM1.625 7.22021C1.625 6.81656 1.72549 6.62861 1.81694 6.53716C1.90839 6.44571 2.09634 6.34521 2.5 6.34521V5.09521C1.90366 5.09521 1.34161 5.24472 0.933058 5.65327C0.524508 6.06182 0.375 6.62387 0.375 7.22021H1.625ZM3.5 3.84521H16V2.59521H3.5V3.84521ZM4.5 1.34521H15V0.0952148H4.5V1.34521ZM12.4418 12.6063L10.4414 10.6067L9.55768 11.4908L11.5581 13.4903L12.4418 12.6063ZM10.4414 10.6068L8.44186 8.60766L7.55808 9.49165L9.55763 11.4907L10.4414 10.6068ZM8.44191 13.4902L10.4415 11.4907L9.55758 10.6068L7.55803 12.6064L8.44191 13.4902ZM10.4415 11.4907L12.4419 9.49024L11.558 8.60636L9.55758 10.6068L10.4415 11.4907Z" fill="currentColor"/>
</svg>
