<svg width="18" height="18" viewBox="0 0 18 18" fill="none" xmlns="http://www.w3.org/2000/svg">
  <path fill-rule="evenodd" clip-rule="evenodd" d="M7.56055 0C7.27386 0 6.86053 0.0798357 6.49732 0.341349C6.09586 0.630397 5.81055 1.10556 5.81055 1.75V2.5H3.56055H1.56055C1.14633 2.5 0.810547 2.83579 0.810547 3.25C0.810547 3.66421 1.14633 4 1.56055 4H2.84386L3.31056 14.2673C3.31188 15.2795 3.4306 16.2434 3.96055 16.95C4.53728 17.719 5.44682 18 6.56055 18H11.5605C12.6743 18 13.5838 17.719 14.1605 16.95C14.6905 16.2434 14.8092 15.2795 14.8105 14.2673L15.2772 4H16.5605C16.9748 4 17.3105 3.66421 17.3105 3.25C17.3105 2.83579 16.9748 2.5 16.5605 2.5H14.5605H12.3105V1.75C12.3105 1.46332 12.2307 1.04998 11.9692 0.686771C11.6801 0.285316 11.205 0 10.5605 0H7.56055ZM10.8105 2.5V1.75C10.8105 1.73656 10.8078 1.70173 10.7957 1.65917C10.7838 1.61765 10.7677 1.58512 10.7519 1.56323C10.7381 1.54406 10.7254 1.5336 10.7104 1.52591C10.6961 1.51853 10.6535 1.5 10.5605 1.5H7.56055C7.5471 1.5 7.51228 1.50273 7.46971 1.51489C7.42819 1.52676 7.39567 1.54289 7.37378 1.55865C7.3546 1.57245 7.34415 1.58519 7.33646 1.6001C7.32908 1.6144 7.31055 1.65707 7.31055 1.75V2.5H10.8105ZM6.56055 4H4.34541L4.80977 14.2159C4.81029 14.2273 4.81055 14.2386 4.81055 14.25C4.81055 15.2315 4.94351 15.7606 5.16055 16.05C5.33382 16.281 5.67427 16.5 6.56055 16.5H11.5605C12.4468 16.5 12.7873 16.281 12.9605 16.05C13.1776 15.7606 13.3105 15.2315 13.3105 14.25C13.3105 14.2386 13.3108 14.2273 13.3113 14.2159L13.7757 4H11.5605H6.56055ZM7.81055 7.25C7.81055 6.83579 7.47476 6.5 7.06055 6.5C6.64633 6.5 6.31055 6.83579 6.31055 7.25V13.25C6.31055 13.6642 6.64633 14 7.06055 14C7.47476 14 7.81055 13.6642 7.81055 13.25V7.25ZM11.8105 7.25C11.8105 6.83579 11.4748 6.5 11.0605 6.5C10.6463 6.5 10.3105 6.83579 10.3105 7.25V13.25C10.3105 13.6642 10.6463 14 11.0605 14C11.4748 14 11.8105 13.6642 11.8105 13.25V7.25Z" fill="currentColor" />
</svg>
