<svg width="12" height="17" viewBox="0 0 12 17" fill="none" xmlns="http://www.w3.org/2000/svg">
  <path fill-rule="evenodd" clip-rule="evenodd" d="M9.87345 5.87269C10.1663 6.16559 10.6412 6.16559 10.9341 5.87269C11.227 5.5798 11.227 5.10493 10.9341 4.81203L6.72359 0.601505C6.5789 0.45682 6.38981 0.383607 6.20018 0.381867C6.19788 0.381847 6.19557 0.381836 6.19326 0.381836C6.19095 0.381836 6.18864 0.381847 6.18633 0.381867C6.08716 0.382764 5.99259 0.402908 5.90617 0.438745C5.81972 0.474513 5.7386 0.527142 5.66785 0.596632M5.66226 0.602177L1.4524 4.81203C1.15951 5.10492 1.15951 5.5798 1.4524 5.87269C1.74529 6.16559 2.22017 6.16559 2.51306 5.87269L5.44326 2.9425V12.5003C5.44326 12.9145 5.77904 13.2503 6.19326 13.2503C6.60747 13.2503 6.94326 12.9145 6.94326 12.5003V2.94249L9.87345 5.87269M1.14062 15.1187C0.726411 15.1187 0.390625 15.4545 0.390625 15.8687C0.390625 16.2829 0.726411 16.6187 1.14062 16.6187H11.2459C11.6601 16.6187 11.9959 16.2829 11.9959 15.8687C11.9959 15.4545 11.6601 15.1187 11.2459 15.1187H1.14062Z" fill="currentColor" />
</svg>
