<svg width="52" height="31" viewBox="0 0 52 31" fill="none" xmlns="http://www.w3.org/2000/svg">
  <path fill-rule="evenodd" clip-rule="evenodd" d="M17.9962 2.37942C13.4095 1.15203 8.7918 4.09039 7.81581 8.80462L7.81059 8.82983L7.80414 8.85476C6.58525 13.5647 9.51215 18.2536 14.1141 19.2388L14.1401 19.2443L14.1657 19.2512C18.7524 20.4786 23.3701 17.5402 24.3461 12.826C25.3388 8.0313 22.6012 3.36662 18.0478 2.39184L18.0219 2.38628L17.9962 2.37942ZM18.513 0.34577C12.731 -1.186 6.98649 2.53039 5.76649 8.35404C5.05568 11.1275 5.50028 13.9042 6.78126 16.1884C4.66794 17.5261 3.03277 19.1014 1.8969 21.0297C0.596615 23.237 0 25.8231 0 28.8801C0 29.4595 0.469685 29.9292 1.04907 29.9292C1.62846 29.9292 2.09814 29.4595 2.09814 28.8801C2.09814 26.1007 2.63831 23.9049 3.7047 22.0946C4.65021 20.4895 6.0482 19.1216 7.98552 17.9095C9.41123 19.5675 11.3611 20.789 13.649 21.2848C17.6282 22.339 21.5897 20.9074 24.0709 18.014C27.2809 20.143 29.7427 23.883 29.7427 29.0252C29.7427 29.6046 30.2124 30.0743 30.7918 30.0743C31.3711 30.0743 31.8408 29.6046 31.8408 29.0252C31.8408 25.3175 30.7106 22.2074 28.9329 19.7894C30.4121 18.227 31.9482 17.299 32.8789 16.8668C33.6041 17.6015 34.464 18.2007 35.4205 18.6058C35.8019 18.7674 36.1987 18.8981 36.6084 18.9942C36.6133 18.9954 36.6183 18.9966 36.6233 18.9977C38.9669 19.5424 41.3792 18.8551 43.2035 17.4058C43.4098 17.2423 43.6082 17.0692 43.798 16.8874C47.6867 19.4136 49.5212 22.254 49.908 25.794C49.9709 26.37 50.4888 26.7858 51.0648 26.7229C51.6408 26.66 52.0566 26.1421 51.9937 25.5661C51.5298 21.3201 49.2942 18.0104 45.1217 15.2466C45.4857 14.6518 45.7751 14.004 45.9707 13.3148C46.0073 13.1861 46.0405 13.056 46.0703 12.9246L46.0721 12.9167L46.0738 12.9087C47.0033 8.4975 44.5107 4.30022 40.0859 3.33156C35.9381 2.36336 31.5734 5.25568 30.6321 9.40312C30.4108 10.3787 30.395 11.3644 30.55 12.3145C30.7138 13.3201 31.0694 14.2896 31.5804 15.1675C30.4631 15.7431 28.987 16.7227 27.564 18.1857C26.8562 17.4688 26.0853 16.8364 25.2711 16.2924C25.7876 15.3668 26.174 14.3461 26.4007 13.2513C27.5927 7.49361 24.3291 1.60626 18.513 0.34577ZM32.6783 9.86746C32.2763 11.6389 32.8158 13.5364 33.9807 14.9576C33.9892 14.9681 33.9978 14.9785 34.0064 14.9888C34.0745 15.0709 34.1447 15.1512 34.2168 15.2297C34.7273 15.7852 35.3348 16.2467 36.0105 16.5706C36.3533 16.7349 36.7136 16.8638 37.0877 16.9516C37.0937 16.953 37.0998 16.9544 37.1058 16.9558C38.7746 17.3408 40.5457 16.8343 41.8956 15.7664C42.1977 15.5269 42.4797 15.2584 42.7357 14.964C43.3191 14.2932 43.7535 13.5024 43.9804 12.6393C43.9953 12.5826 44.0093 12.5255 44.0224 12.468C44.7274 9.10344 42.8512 6.0815 39.6311 5.37982L39.6229 5.37804L39.6147 5.37613C36.659 4.68252 33.3763 6.79168 32.6783 9.86746Z" fill="currentColor" />
</svg>
