<svg width="19" height="18" viewBox="0 0 19 18" fill="none" xmlns="http://www.w3.org/2000/svg">
    <path d="M13.1177 9.70587C15.7059 11 17.4706 13.8235 17.4706 17" stroke="currentColor" stroke-width="1.75" stroke-linecap="round" />
    <path d="M1 17C1 13.8235 2.76471 11 5.35294 9.70587" stroke="currentColor" stroke-width="1.75" stroke-linecap="round" />
    <mask id="path-3-inside-1" fill="white">
        <path fill-rule="evenodd" clip-rule="evenodd" d="M9.2353 1C6.76471 1 4.64706 2.64706 4.05883 5.11765C3.35294 7.94118 5.11765 10.8824 8.05883 11.4706C8.41177 11.5882 8.88236 11.7059 9.2353 11.7059C11.7059 11.7059 13.8235 10.0588 14.4118 7.58824C15.1176 4.76471 13.2353 1.82353 10.4118 1.23529C10.0588 1 9.58824 1 9.2353 1ZM9.2353 1.82353C9.58824 1.82353 9.94118 1.82353 10.2941 1.94118C11.4706 2.17647 12.5294 2.88235 13.1177 3.94118C13.7059 5 13.9412 6.17647 13.7059 7.35294C13.2353 9.47059 11.3529 10.8824 9.2353 10.8824C8.88236 10.8824 8.52942 10.8824 8.17647 10.7647C7 10.5294 5.94118 9.82353 5.35294 8.76471C4.76471 7.70588 4.52942 6.52941 4.76471 5.35294C5.2353 3.23529 7.11765 1.82353 9.2353 1.82353Z" />
    </mask>
    <path fill-rule="evenodd" clip-rule="evenodd" d="M9.2353 1C6.76471 1 4.64706 2.64706 4.05883 5.11765C3.35294 7.94118 5.11765 10.8824 8.05883 11.4706C8.41177 11.5882 8.88236 11.7059 9.2353 11.7059C11.7059 11.7059 13.8235 10.0588 14.4118 7.58824C15.1176 4.76471 13.2353 1.82353 10.4118 1.23529C10.0588 1 9.58824 1 9.2353 1ZM9.2353 1.82353C9.58824 1.82353 9.94118 1.82353 10.2941 1.94118C11.4706 2.17647 12.5294 2.88235 13.1177 3.94118C13.7059 5 13.9412 6.17647 13.7059 7.35294C13.2353 9.47059 11.3529 10.8824 9.2353 10.8824C8.88236 10.8824 8.52942 10.8824 8.17647 10.7647C7 10.5294 5.94118 9.82353 5.35294 8.76471C4.76471 7.70588 4.52942 6.52941 4.76471 5.35294C5.2353 3.23529 7.11765 1.82353 9.2353 1.82353Z" fill="currentColor" />
    <path d="M4.05883 5.11765L5.02903 5.3602L5.03163 5.34927L4.05883 5.11765ZM8.05883 11.4706L8.37505 10.5219L8.31599 10.5022L8.25494 10.49L8.05883 11.4706ZM14.4118 7.58824L13.4416 7.34568L13.439 7.35662L14.4118 7.58824ZM10.4118 1.23529L9.85707 2.06734L10.0182 2.17477L10.2078 2.21427L10.4118 1.23529ZM10.2941 1.94118L9.97789 2.88986L10.037 2.90955L10.098 2.92176L10.2941 1.94118ZM13.7059 7.35294L14.6821 7.56987L14.6844 7.55949L14.6865 7.54906L13.7059 7.35294ZM8.17647 10.7647L8.4927 9.81602L8.43364 9.79634L8.37259 9.78413L8.17647 10.7647ZM4.76471 5.35294L3.78852 5.13601L3.78621 5.14639L3.78413 5.15683L4.76471 5.35294ZM9.2353 0C6.30116 0 3.7814 1.96544 3.08602 4.88603L5.03163 5.34927C5.51273 3.32868 7.22826 2 9.2353 2V0ZM3.08868 4.87511C2.24857 8.23555 4.34462 11.7476 7.86271 12.4512L8.25494 10.49C5.89068 10.0172 4.45731 7.6468 5.02897 5.36018L3.08868 4.87511ZM7.7426 12.4193C8.12322 12.5461 8.71756 12.7059 9.2353 12.7059V10.7059C9.04715 10.7059 8.70031 10.6303 8.37505 10.5219L7.7426 12.4193ZM9.2353 12.7059C12.1694 12.7059 14.6892 10.7404 15.3846 7.81986L13.439 7.35662C12.9579 9.37721 11.2423 10.7059 9.2353 10.7059V12.7059ZM15.3819 7.83077C16.2274 4.44883 13.9875 0.958761 10.6157 0.256314L10.2078 2.21427C12.4831 2.6883 14.0079 5.08058 13.4416 7.3457L15.3819 7.83077ZM10.9665 0.403244C10.3178 -0.0291818 9.52146 0 9.2353 0V2C9.42062 2 9.55724 2.00152 9.68211 2.01936C9.80419 2.0368 9.84929 2.06216 9.85707 2.06734L10.9665 0.403244ZM9.2353 2.82353C9.61079 2.82353 9.80259 2.83142 9.97789 2.88986L10.6103 0.992493C10.0798 0.815635 9.56569 0.823529 9.2353 0.823529V2.82353ZM10.098 2.92176C11.019 3.10596 11.813 3.65185 12.2435 4.42682L13.9918 3.45553C13.2459 2.11286 11.9222 1.24698 10.4902 0.960596L10.098 2.92176ZM12.2435 4.42682C12.7327 5.30733 12.9079 6.24374 12.7253 7.15683L14.6865 7.54906C14.9744 6.10921 14.6791 4.69267 13.9918 3.45553L12.2435 4.42682ZM12.7297 7.13601C12.3663 8.77129 10.9102 9.88235 9.2353 9.88235V11.8824C11.7957 11.8824 14.1043 10.1699 14.6821 7.56987L12.7297 7.13601ZM9.2353 9.88235C8.85981 9.88235 8.66801 9.87446 8.4927 9.81602L7.86025 11.7134C8.39082 11.8902 8.90491 11.8824 9.2353 11.8824V9.88235ZM8.37259 9.78413C7.45157 9.59992 6.65764 9.05403 6.2271 8.27906L4.47879 9.25035C5.22472 10.593 6.54844 11.4589 7.98036 11.7453L8.37259 9.78413ZM6.2271 8.27906C5.73793 7.39855 5.56267 6.46215 5.74529 5.54906L3.78413 5.15683C3.49616 6.59668 3.79149 8.01321 4.47879 9.25035L6.2271 8.27906ZM5.7409 5.56987C6.10429 3.93459 7.56044 2.82353 9.2353 2.82353V0.823529C6.67487 0.823529 4.3663 2.536 3.78852 5.13601L5.7409 5.56987Z" fill="currentColor" mask="url(#path-3-inside-1)" />
    <path d="M13.9412 7.47058C13.3529 10.0588 10.7647 11.7059 8.17644 11.1176C5.58821 10.4118 3.94115 7.82352 4.52939 5.23528C5.11762 2.64705 7.70586 0.999989 10.2941 1.58822C12.8823 2.17646 14.5294 4.76469 13.9412 7.47058Z" stroke="currentColor" stroke-width="1.75" />
</svg>
