<svg width="18" height="18" viewBox="0 0 4 13" fill="none" xmlns="http://www.w3.org/2000/svg">
  <path d="M2.24997 9.33575C3.01467 9.33575 3.63459 9.95566 3.63459 10.7204C3.63459 11.4851 3.01467 12.105 2.24997 12.105C1.48527 12.105 0.865356 11.4851 0.865356 10.7204C0.865356 9.95566 1.48527 9.33575 2.24997 9.33575Z" fill="currentColor"/>
  <path d="M2.24997 0.10498C3.01467 0.10498 3.63459 0.724894 3.63459 1.4896C3.63459 2.2543 3.01467 2.87421 2.24997 2.87421C1.48527 2.87421 0.865356 2.2543 0.865356 1.4896C0.865356 0.724894 1.48527 0.10498 2.24997 0.10498Z" fill="currentColor"/>
  <path d="M2.24997 4.72037C3.01467 4.72037 3.63459 5.34028 3.63459 6.10498C3.63459 6.86968 3.01467 7.4896 2.24997 7.4896C1.48527 7.4896 0.865356 6.86968 0.865356 6.10498C0.865356 5.34028 1.48527 4.72037 2.24997 4.72037Z" fill="currentColor"/>
</svg>
