<svg width="19" height="15" viewBox="0 0 19 15" fill="none" xmlns="http://www.w3.org/2000/svg">
    <path d="M9.37014 9.31812C9.36706 9.59205 9.14412 9.8125 8.87017 9.8125H8.61941C8.34546 9.8125 8.12252 9.59205 8.11944 9.31812L8.06818 4.75562C8.06505 4.4773 8.28981 4.25 8.56815 4.25H8.92143C9.19977 4.25 9.42453 4.4773 9.4214 4.75562L9.37014 9.31812Z" fill="currentColor" />
    <path d="M8 11.4063C8 10.9792 8.33333 10.6458 8.73958 10.6458C9.15625 10.6458 9.5 10.9792 9.5 11.4063C9.5 11.8125 9.15625 12.1458 8.73958 12.1458C8.33333 12.1458 8 11.8125 8 11.4063Z" fill="currentColor" />
    <path fill-rule="evenodd" clip-rule="evenodd" d="M9.38874 0.356927C9.25224 0.135116 9.01045 0 8.75 0C8.48955 0 8.24776 0.135116 8.11126 0.356927L0.111256 13.3569C-0.0311469 13.5883 -0.0372569 13.8787 0.0952847 14.1159C0.227826 14.353 0.478289 14.5 0.75 14.5H16.75C17.0217 14.5 17.2722 14.353 17.4047 14.1159C17.5373 13.8787 17.5311 13.5883 17.3887 13.3569L9.38874 0.356927ZM8.75 2.18103L15.4078 13H2.09217L8.75 2.18103Z" fill="currentColor" />
</svg>
