<svg width="52" height="53" viewBox="0 0 52 53" fill="none" xmlns="http://www.w3.org/2000/svg">
    <path d="M17.1104 18.8262L10.2992 22.7633L10.8602 23.7377L13.7343 22.0743L18.075 29.5843L19.1282 28.9741L14.7973 21.464L17.6813 19.8006L17.1104 18.8262Z" fill="currentColor"/>
    <path d="M22.5338 20.3617C23.4689 19.8203 24.2662 20.0664 24.8469 21.0704L26.8351 24.5153L27.8489 23.9346L25.7426 20.2928C24.9453 18.9148 23.6756 18.5014 22.4256 19.2199C21.6775 19.653 21.2346 20.2928 21.1854 21.031L21.1657 21.2771L19.0889 17.6844L18.075 18.2652L22.9768 26.7497L23.9906 26.1689L22.0417 22.7929C21.5003 21.7987 21.6972 20.844 22.5338 20.3617Z" fill="currentColor"/>
    <path d="M32.3078 18.8951C32.4751 19.8302 32.1306 20.5388 31.294 21.0211C30.2605 21.6215 29.04 21.2869 28.4002 20.2337L28.3608 20.1648L32.7704 17.6155C32.7212 17.5073 32.672 17.4088 32.6129 17.3104C31.5499 15.46 29.8274 14.9284 28.1443 15.9029C26.6187 16.7887 26.1856 18.8065 27.16 20.4995C28.3707 22.596 30.418 22.6944 31.796 21.8971C32.9968 21.1983 33.5874 19.9778 33.3314 18.6884L32.3078 18.8951ZM27.9081 19.2888C27.5242 18.5014 27.6522 17.3596 28.666 16.7789C29.6502 16.208 30.664 16.4442 31.2349 17.3695L31.2743 17.4384L27.9376 19.3577L27.9081 19.2888Z" fill="currentColor"/>
    <path d="M10.6339 34.0136L15.5356 42.4981L20.6637 39.5354L20.0928 38.5512L16.0179 40.9036L11.6969 33.4034L10.6339 34.0136Z" fill="currentColor"/>
    <path d="M23.8626 37.9311C24.4532 37.5866 25.0733 36.9369 25.0339 36.12L25.0241 35.805L25.1816 36.0806C25.3095 36.2972 25.4375 36.5039 25.5851 36.7007L26.5497 36.1397C26.4316 35.9724 26.1658 35.6082 25.9099 35.1554L23.2032 30.4604L22.1894 31.0411L24.1874 34.4959C24.7485 35.4704 24.5418 36.3661 23.6363 36.8976C22.7602 37.3996 21.9039 37.1141 21.333 36.1298L19.3448 32.6849L18.331 33.2656L20.4177 36.8779C21.2149 38.2362 22.5929 38.6693 23.8626 37.9311Z" fill="currentColor"/>
    <path d="M30.1521 34.2991C30.7427 33.9546 31.3628 33.305 31.3234 32.488L31.3038 32.1731L31.4612 32.4388C31.5892 32.6554 31.7172 32.8621 31.8648 33.0589L32.8294 32.5077C32.603 32.1928 32.3865 31.8581 32.1896 31.5234L29.4828 26.8284L28.469 27.4092L30.4671 30.864C31.0282 31.8384 30.8215 32.7341 29.9159 33.2656C29.0399 33.7676 28.1836 33.4822 27.6127 32.4979L25.6245 29.0529L24.6107 29.6336L26.6973 33.2459C27.4946 34.6141 28.8726 35.0373 30.1521 34.2991Z" fill="currentColor"/>
    <path d="M33.8235 24.1413C32.9868 24.6236 32.4848 25.4307 32.5045 26.2477L32.5144 26.5528L31.8746 25.4504L30.9002 26.0114L35.5263 34.0333L36.5204 33.4526L34.6306 30.1848L34.8668 30.3127C35.3885 30.5982 36.2842 30.7163 37.2291 30.1651C38.8138 29.2497 39.1878 27.419 38.1444 25.6079C37.1011 23.7968 35.4082 23.2259 33.8235 24.1413ZM36.5696 29.3678C35.5066 29.9879 34.2664 29.545 33.538 28.2851C32.8097 27.0252 33.0656 25.7457 34.1286 25.1354C35.1916 24.5252 36.4121 24.9484 37.1405 26.2083C37.859 27.4682 37.6425 28.7576 36.5696 29.3678Z" fill="currentColor"/>
    <path d="M44.1486 23.5015C44.3159 24.4366 43.9714 25.1452 43.1348 25.6275C42.1013 26.2279 40.8808 25.8933 40.241 24.8401L40.2016 24.7712L44.6112 22.2219C44.5718 22.1432 44.5127 22.0251 44.4537 21.9168C43.3907 20.0664 41.678 19.525 39.9851 20.4994C38.4594 21.3853 38.0263 23.4031 39.0008 25.096C40.2114 27.1925 42.2587 27.291 43.6367 26.4937C44.8376 25.7949 45.4281 24.5744 45.1722 23.2849L44.1486 23.5015ZM39.7488 23.8952C39.2961 22.9897 39.6209 21.8873 40.5067 21.3853C41.491 20.8144 42.5048 21.0506 43.0757 21.9759L43.1151 22.0448L39.7784 23.9739L39.7488 23.8952Z" fill="currentColor"/>
    <path d="M26.0378 52.4984C23.7838 52.4984 21.5102 52.2031 19.266 51.6027C12.5631 49.8015 6.96251 45.51 3.488 39.4961C0.0233364 33.4821 -0.901886 26.474 0.899345 19.7711C2.70058 13.0682 6.99203 7.46761 13.006 3.9931C19.0199 0.518595 26.0182 -0.396785 32.7211 1.3946C39.424 3.18599 45.0246 7.48729 48.4991 13.5012C51.9638 19.5152 52.889 26.5134 51.0976 33.2164C49.3062 39.9193 45.0049 45.5198 38.991 48.9944C34.9849 51.3172 30.5458 52.4984 26.0378 52.4984ZM25.9591 1.10916C21.5594 1.10916 17.2285 2.26077 13.3111 4.52461C7.4448 7.91053 3.24193 13.3831 1.48991 19.9286C-0.262104 26.474 0.63359 33.3148 4.02935 39.1811C7.41527 45.0474 12.8879 49.2503 19.4333 51.0023C25.9788 52.7543 32.8195 51.8586 38.6858 48.4628C44.5521 45.0769 48.755 39.6043 50.507 33.0589C52.259 26.5134 51.3633 19.6727 47.9774 13.8064C44.5817 7.94006 39.1091 3.73719 32.5636 1.98517C30.3785 1.40445 28.1639 1.10916 25.9591 1.10916Z" fill="currentColor"/>
</svg>
